<svg width="48" height="48" viewBox="0 0 48 48" fill="none" xmlns="http://www.w3.org/2000/svg">
<path fill-rule="evenodd" clip-rule="evenodd" d="M10.666 4.04494C14.6128 1.40765 19.2532 0 24 0C30.3646 0 36.4687 2.52815 40.9695 7.02836C45.4703 11.5286 47.9992 17.6323 48 23.997C48.0005 28.7439 46.5934 33.3842 43.9568 37.3314C41.32 41.2786 37.5719 44.3552 33.1864 46.1722C28.8011 47.9892 23.9754 48.4649 19.3197 47.5392C14.6639 46.6134 10.3873 44.3279 7.03051 40.9716C3.67375 37.6152 1.38767 33.3388 0.461385 28.6833C-0.464904 24.0276 0.0101965 19.2018 1.82661 14.8163C3.64302 10.4307 6.71916 6.68222 10.666 4.04494ZM28.1034 21.8347C33.0458 23.5806 34.9522 27.5462 34.9522 33.4516V39.6189H15.5205V7.48316H24.1407C27.4038 7.48316 28.7682 8.05553 30.3096 9.24871C32.5551 11.0082 32.9079 13.5626 32.9079 14.8437C32.9286 16.5364 32.3341 18.1791 31.2348 19.4665C30.4086 20.5084 29.3311 21.3233 28.1034 21.8347ZM30.5504 32.852C30.5504 26.2092 28.4244 22.5752 22.9612 22.5752V20.9595H22.9945C23.8375 20.9651 24.6703 20.7768 25.4287 20.4093C26.1874 20.0416 26.8512 19.5046 27.3691 18.8396C28.373 17.6253 28.5789 16.4805 28.6258 15.4584H22.9991V13.8806H28.5775C28.452 12.8067 28.0328 11.7882 27.366 10.937C26.0895 9.35016 24.2816 9.08366 23.0915 9.08366H19.9117V37.8685H22.9991V27.1176H27.0465V37.8488H30.5504V32.852Z" fill="#0F2D69"/>
</svg>
