<svg width="67" height="507" viewBox="0 0 67 507" fill="none" xmlns="http://www.w3.org/2000/svg">
<path d="M67 479.387C67 484.424 65.7661 489.058 63.2983 493.287C60.7689 497.454 57.0364 500.781 52.1008 503.268C47.1653 505.756 41.0884 507 33.8702 507C26.7753 507 20.6985 505.787 15.6395 503.362C10.5806 500.874 6.7247 497.391 4.07184 492.914C1.35729 488.436 2.00144e-05 483.212 1.97555e-05 477.241C1.96152e-05 474.007 0.401033 470.711 1.20306 467.353C1.94339 463.932 3.11558 460.325 4.71963 456.531L20.7293 457.278V464.088L9.62433 466.14L11.5677 464.181C10.6423 466.482 9.96365 468.721 9.53179 470.898C9.03823 473.012 8.79146 475.002 8.79146 476.868C8.79146 480.662 9.74772 483.896 11.6602 486.57C13.5111 489.182 16.2256 491.203 19.8039 492.634C23.3205 494.002 27.5157 494.686 32.3895 494.686C38.0037 494.686 42.6925 493.909 46.4558 492.354C50.2192 490.799 53.0571 488.653 54.9696 485.917C56.8204 483.118 57.7459 479.978 57.7459 476.495C57.7459 473.945 57.2215 471.24 56.1727 468.379C55.0622 465.518 53.3656 462.688 51.0829 459.89L57.7459 455.598C60.8306 459.392 63.1441 463.341 64.6865 467.446C66.2288 471.488 67 475.469 67 479.387Z" fill="#1E1E1E"/>
<path d="M6.75554 373.811L9.43924 382.673L6.47792 381.088H60.2445L57.9309 382.673L60.2445 373.811H65.982L65.982 398.906H60.2445L57.8384 389.67L60.2445 391.629H13.2334L13.326 389.95L49.047 408.328L49.5097 415.697L13.1409 433.422V431.743H60.2445L58.0235 433.142L60.2445 424.466H65.982V448.348H60.2445L57.9309 439.393L60.2445 441.072H6.47792L9.3467 439.393L7.21825 448.348H1.48068L1.01798 426.985L38.2196 410.007V411.406L1.48068 393.681L1.01797 373.811H6.75554Z" fill="#1E1E1E"/>
<path d="M65.982 366.357H60.2445L57.9309 357.494L60.2445 359.08H7.03316L9.43924 357.121L7.21825 366.357H1.48068L1.01797 340.329H6.75554L9.43924 349.378L6.94062 347.606H47.1961L46.5483 349.472L9.71686 316.355L12.4931 317.474H7.03316L9.43924 315.608L7.21824 324.657H1.48068L1.01797 298.723H6.75554L9.43924 307.585L6.94062 306H60.2445L57.9309 307.585L60.2445 298.723H65.982V324.657H60.2445L57.9309 315.888L60.2445 317.474L19.4337 317.474L20.4517 315.608L57.0981 348.539L54.5994 347.606H60.2445L57.9309 349.099L60.2445 340.329H65.982V366.357Z" fill="#1E1E1E"/>
<path d="M67 244.503C67 250.225 65.7661 255.231 63.2983 259.523C60.8306 263.814 57.1598 267.172 52.2859 269.598C47.4121 271.961 41.3969 273.143 34.2403 273.143C28.5645 273.143 23.5981 272.396 19.3412 270.904C15.0226 269.411 11.4443 267.297 8.60637 264.56C5.70673 261.824 3.54743 258.621 2.12846 254.951C0.709494 251.22 9.77685e-06 247.115 9.58268e-06 242.637C9.39391e-06 238.284 0.709493 234.335 2.12846 230.79C3.48574 227.183 5.52165 224.104 8.2362 221.554C10.9507 218.942 14.3131 216.921 18.3232 215.491C22.3333 213.998 26.9913 213.252 32.297 213.252C39.5769 213.252 45.808 214.589 50.9903 217.263C56.111 219.875 60.0594 223.513 62.8356 228.178C65.6119 232.842 67 238.284 67 244.503ZM58.2086 243.664C58.2086 240.305 57.3757 237.289 55.7099 234.615C54.0442 231.878 51.3605 229.702 47.6588 228.085C43.9572 226.405 39.0216 225.566 32.8522 225.566C27.1146 225.566 22.4876 226.343 18.971 227.898C15.3927 229.391 12.8016 231.443 11.1975 234.055C9.59347 236.667 8.79144 239.714 8.79144 243.197C8.79144 246.493 9.59347 249.51 11.1975 252.246C12.8016 254.92 15.4544 257.035 19.1561 258.59C22.796 260.082 27.7007 260.829 33.8702 260.829C39.6077 260.829 44.2657 260.113 47.8439 258.683C51.4222 257.253 54.0442 255.262 55.7099 252.713C57.3757 250.1 58.2086 247.084 58.2086 243.664Z" fill="#1E1E1E"/>
<path d="M65.982 187.798H60.2445L57.9309 178.936L60.2445 180.522L7.03316 180.522L9.43923 178.562L7.21824 187.798H1.48067L1.01796 161.771H6.75553L9.43923 170.82L6.94062 169.047H30.6312L28.7804 170.913V138.449L30.6312 140.221H7.03315L9.43923 138.449L7.21824 147.498H1.48067L1.01796 121.564H6.75553L9.43923 130.426L6.94061 128.84L60.2445 128.84L57.9309 130.426L60.2445 121.564H65.982V147.498H60.2445L57.9309 138.729L60.2445 140.221L35.1657 140.221L37.0166 138.449V170.913L35.1657 169.047H60.2445L57.9309 170.54L60.2445 161.771H65.982L65.982 187.798Z" fill="#1E1E1E"/>
<path d="M60.5221 59.1912L57.8384 62.2697L60.2445 53.967H65.982V79.9011H60.2445L58.0235 71.2253L59.6892 72.3448L46.7334 76.5427L48.2141 74.677V100.611L46.826 99.1184L59.5041 103.596L58.3011 103.969L60.2445 95.8533H65.982V119.735H60.2445L57.9309 111.712L60.2445 114.324L1.20304 92.0285L0.832875 80.3675L60.5221 59.1912ZM41.8287 97.6258L40.2555 98.4654L40.2555 76.636L42.1063 77.7555L7.21823 88.297L7.31078 85.6849L41.8287 97.6258Z" fill="#1E1E1E"/>
<path d="M67 23.7884C67 28.826 65.7661 33.4593 63.2983 37.6883C60.7689 41.8552 57.0364 45.1824 52.1008 47.6701C47.1653 50.1578 41.0884 51.4016 33.8702 51.4016C26.7753 51.4016 20.6984 50.1889 15.6395 47.7634C10.5806 45.2757 6.72468 41.793 4.07183 37.3152C1.35728 32.8373 2.58888e-07 27.6132 0 21.6428C-1.4023e-07 18.4088 0.401013 15.1126 1.20304 11.7543C1.94337 8.33372 3.11556 4.72659 4.71961 0.93288L20.7293 1.67918V8.4892L9.62431 10.5415L11.5677 8.58249C10.6423 10.8836 9.96363 13.1225 9.53177 15.2992C9.03821 17.4137 8.79144 19.4039 8.79144 21.2696C8.79144 25.0634 9.7477 28.2973 11.6602 30.9716C13.511 33.5836 16.2256 35.6049 19.8039 37.0353C23.3204 38.4035 27.5156 39.0876 32.3895 39.0876C38.0037 39.0876 42.6924 38.3102 46.4558 36.7554C50.2191 35.2006 53.0571 33.055 54.9696 30.3186C56.8204 27.5199 57.7458 24.3792 57.7458 20.8965C57.7458 18.3466 57.2214 15.6413 56.1726 12.7804C55.0621 9.91961 53.3655 7.08988 51.0829 4.29124L57.7458 0C60.8305 3.79371 63.1441 7.74289 64.6864 11.8476C66.2288 15.89 67 19.8703 67 23.7884Z" fill="#1E1E1E"/>
</svg>
