<svg width="1476" height="122" viewBox="0 0 1476 122" fill="none" xmlns="http://www.w3.org/2000/svg">
<path d="M43.917 8.86033L27.0391 12.6089L28.9336 10.2235V112.117L27.0391 109.732L43.917 113.14V120.466H0V113.14L16.7057 109.732L14.8112 112.117V10.2235L17.0501 12.7793L0 9.71229V2.38547L43.917 1.53352V8.86033Z" fill="white"/>
<path d="M143.904 2.38547L185.754 1.53352V8.86033L168.532 12.7793L170.771 9.5419V120.466H154.926L88.7921 16.3575L90.8587 16.1871V112.628L88.2754 109.561L105.67 113.14V120.466H63.9919V113.14L81.3864 109.561L78.8031 112.628V9.5419L80.6975 12.6089L63.9919 9.71229V2.38547L95.681 1.53352L160.954 103.939L158.887 104.109V9.5419L161.298 12.6089L143.904 9.71229V2.38547Z" fill="white"/>
<path d="M342.338 112.969L338.376 109.561L354.565 113.14V120.466H309.787V113.14L327.699 109.732L326.321 112.117L317.193 84.8547L319.776 86.8994H267.076L269.487 84.8547L259.67 111.777L258.809 109.902L276.376 113.14V120.466H234.009V113.14L249.854 109.561L246.237 112.628L288.259 1.70391L302.554 1.19273L342.338 112.969ZM271.381 78.8911L270.004 76.676H317.021L315.471 79.0615L292.909 9.71229L296.182 9.88268L271.381 78.8911Z" fill="white"/>
<path d="M362.094 120.466V113.14L379.144 109.561L376.905 112.628V9.71229L379.833 12.9497L362.094 9.71229V2.38547L391.544 1.53352H411.694C424.668 1.53352 434.485 4.20298 441.144 9.5419C447.804 14.8808 451.133 22.6052 451.133 32.7151C451.133 42.0298 448.148 49.6406 442.178 55.5475C436.322 61.4544 427.366 65.0326 415.311 66.2821L415.138 64.5782C419.616 65.0326 423.233 66.0549 425.988 67.6453C428.859 69.122 431.27 71.1667 433.222 73.7793C435.174 76.2784 437.068 79.4022 438.905 83.1508L453.372 112.117L449.066 109.221L463.533 113.14V120.466H442.35L426.505 86.8994C424.324 82.0149 422.2 78.2663 420.133 75.6536C418.181 72.9274 415.713 70.9963 412.727 69.8603C409.857 68.7244 405.724 68.1564 400.327 68.1564L388.444 68.3268L391.027 65.9413V112.628L388.788 109.561L408.766 113.14V120.466H362.094ZM391.027 61.852L388.444 58.1033H404.805C415.024 58.1033 422.888 56.0587 428.4 51.9693C433.911 47.7663 436.666 41.6322 436.666 33.567C436.666 26.5242 434.427 21.1853 429.95 17.5503C425.472 13.8017 418.813 11.9274 409.972 11.9274H388.444L391.027 9.37151V61.852Z" fill="white"/>
<path d="M491.926 120.466V113.14L511.904 109.561L509.148 113.31V9.37151L512.248 11.9274H479.009L482.454 9.03072L479.009 30.6704H470.398V1.53352H561.849V30.6704H553.238L549.793 9.37151L553.238 11.9274H519.998L523.098 9.37151V113.31L520.515 109.561L540.321 113.14V120.466H491.926Z" fill="white"/>
<path d="M740.988 2.38547L783.355 1.53352V8.86033L766.822 12.4385L770.439 8.68994L738.405 120.637H724.799L694.66 18.743L697.244 18.9134L665.382 120.637H651.776L622.154 9.5419L624.048 12.2682L608.721 9.71229V2.38547L652.638 1.53352V8.86033L634.554 12.4385L636.621 9.5419L661.249 107.687H658.321L690.355 2.21509L703.271 1.53352L733.927 107.346H730.999L757.866 9.71229L759.416 12.4385L740.988 9.71229V2.38547Z" fill="white"/>
<path d="M870.16 92.5223H878.771V120.466H791.798V113.14L808.849 109.561L806.61 112.628V9.71229L808.849 12.7793L791.798 9.71229V2.38547L820.56 1.53352H876.705V28.4553H868.093L864.993 9.71229L867.921 11.9274H818.149L820.732 9.37151V57.081L818.149 54.5251H864.132V64.7486H818.149L820.732 61.852V112.628L818.149 110.073H870.16L867.06 112.628L870.16 92.5223Z" fill="white"/>
<path d="M957.872 120.466V113.14L977.85 109.561L975.094 113.31V9.37151L978.194 11.9274H944.955L948.4 9.03072L944.955 30.6704H936.344V1.53352H1027.79V30.6704H1019.18L1015.74 9.37151L1019.18 11.9274H985.944L989.044 9.37151V113.31L986.461 109.561L1006.27 113.14V120.466H957.872Z" fill="white"/>
<path d="M1040.45 120.466V113.14L1057.5 109.561L1055.26 112.628V9.71229L1058.19 12.9497L1040.45 9.71229V2.38547L1069.9 1.53352H1090.05C1103.03 1.53352 1112.84 4.20298 1119.5 9.5419C1126.16 14.8808 1129.49 22.6052 1129.49 32.7151C1129.49 42.0298 1126.51 49.6406 1120.54 55.5475C1114.68 61.4544 1105.73 65.0326 1093.67 66.2821L1093.5 64.5782C1097.98 65.0326 1101.59 66.0549 1104.35 67.6453C1107.22 69.122 1109.63 71.1667 1111.58 73.7793C1113.53 76.2784 1115.43 79.4022 1117.26 83.1508L1131.73 112.117L1127.43 109.221L1141.89 113.14V120.466H1120.71L1104.86 86.8994C1102.68 82.0149 1100.56 78.2663 1098.49 75.6536C1096.54 72.9274 1094.07 70.9963 1091.09 69.8603C1088.22 68.7244 1084.08 68.1564 1078.69 68.1564L1066.8 68.3268L1069.39 65.9413V112.628L1067.15 109.561L1087.13 113.14V120.466H1040.45ZM1069.39 61.852L1066.8 58.1033H1083.16C1093.38 58.1033 1101.25 56.0587 1106.76 51.9693C1112.27 47.7663 1115.03 41.6322 1115.03 33.567C1115.03 26.5242 1112.79 21.1853 1108.31 17.5503C1103.83 13.8017 1097.17 11.9274 1088.33 11.9274H1066.8L1069.39 9.37151V61.852Z" fill="white"/>
<path d="M1226.55 2.38547L1270.47 1.53352V8.86033L1253.42 12.6089L1255.48 9.03072V75.4832C1255.48 79.6862 1255.14 84.0028 1254.45 88.433C1253.76 92.8631 1252.5 97.0661 1250.66 101.042C1248.82 105.018 1246.24 108.596 1242.91 111.777C1239.58 114.957 1235.22 117.456 1229.82 119.274C1224.54 121.091 1218 122 1210.19 122C1201.46 122 1194.29 120.921 1188.66 118.763C1183.03 116.604 1178.67 113.764 1175.57 110.243C1172.47 106.608 1170.29 102.803 1169.03 98.8268C1167.76 94.7374 1166.96 90.8184 1166.62 87.0698C1166.27 83.3212 1166.1 80.0838 1166.1 77.3575V9.03072L1168.17 12.6089L1151.29 9.71229V2.38547L1195.21 1.53352V8.86033L1178.33 12.6089L1180.22 9.03072V77.3575C1180.22 80.1974 1180.34 83.2076 1180.57 86.3883C1180.8 89.4553 1181.37 92.4656 1182.29 95.419C1183.32 98.3724 1184.93 101.042 1187.11 103.427C1189.29 105.699 1192.22 107.574 1195.89 109.05C1199.68 110.413 1204.51 111.095 1210.36 111.095C1216.33 111.095 1221.21 110.357 1225 108.88C1228.9 107.403 1231.95 105.415 1234.13 102.916C1236.42 100.417 1238.09 97.6341 1239.12 94.567C1240.16 91.3864 1240.79 88.2058 1241.02 85.0251C1241.25 81.7309 1241.36 78.5503 1241.36 75.4832V9.03072L1243.08 12.4385L1226.55 9.71229V2.38547Z" fill="white"/>
<path d="M1306.12 30.5C1306.12 34.8166 1307.27 38.338 1309.57 41.0642C1311.86 43.7905 1314.9 46.0624 1318.69 47.8799C1322.6 49.5838 1326.85 51.1173 1331.44 52.4804C1336.03 53.8436 1340.62 55.3771 1345.22 57.081C1349.81 58.6713 1354 60.716 1357.79 63.2151C1361.58 65.6006 1364.62 68.7812 1366.92 72.757C1369.33 76.6192 1370.53 81.5037 1370.53 87.4106C1370.53 95.3622 1368.47 101.894 1364.33 107.006C1360.31 112.117 1354.92 115.923 1348.14 118.422C1341.37 120.807 1333.96 122 1325.93 122C1320.19 122 1314.33 121.432 1308.36 120.296C1302.39 119.047 1296.53 117.229 1290.79 114.844L1291.83 86.8994H1300.27L1303.19 108.709L1301.47 105.813C1305.49 107.63 1309.68 108.993 1314.04 109.902C1318.41 110.811 1322.65 111.265 1326.79 111.265C1332.18 111.265 1337.12 110.47 1341.6 108.88C1346.08 107.176 1349.69 104.734 1352.45 101.553C1355.21 98.2588 1356.58 94.1695 1356.58 89.2849C1356.58 84.7412 1355.38 81.1061 1352.97 78.3799C1350.67 75.54 1347.63 73.2114 1343.84 71.3939C1340.05 69.5764 1335.86 67.986 1331.27 66.6229C1326.67 65.2598 1322.08 63.8399 1317.49 62.3631C1312.9 60.7728 1308.7 58.7849 1304.92 56.3994C1301.13 54.014 1298.03 50.9469 1295.62 47.1983C1293.32 43.3361 1292.17 38.4516 1292.17 32.5447C1292.17 25.2747 1293.95 19.2542 1297.51 14.4832C1301.18 9.59869 1306.12 5.96368 1312.32 3.57821C1318.64 1.19274 1325.64 0 1333.33 0C1338.73 0 1344.36 0.56797 1350.21 1.70391C1356.07 2.83985 1361.81 4.60056 1367.43 6.98603L1366.06 33.7374H1357.44L1354.86 13.2905L1356.93 15.3352C1353.48 13.8585 1349.75 12.7225 1345.73 11.9274C1341.71 11.1322 1337.7 10.7346 1333.68 10.7346C1328.97 10.7346 1324.49 11.4162 1320.24 12.7793C1316 14.0289 1312.55 16.1303 1309.91 19.0838C1307.38 21.9236 1306.12 25.729 1306.12 30.5Z" fill="white"/>
<path d="M1406.08 120.466V113.14L1426.06 109.561L1423.3 113.31V9.37151L1426.4 11.9274H1393.16L1396.6 9.03072L1393.16 30.6704H1384.55V1.53352H1476V30.6704H1467.39L1463.94 9.37151L1467.39 11.9274H1434.15L1437.25 9.37151V113.31L1434.67 109.561L1454.47 113.14V120.466H1406.08Z" fill="white"/>
</svg>
