<svg viewBox="0 0 540 540" fill="none" xmlns="http://www.w3.org/2000/svg">
<path d="M264.111 538.937C266.069 538.979 268.032 539 270 539V540C268.025 540 266.055 539.977 264.09 539.935L264.111 538.937ZM275.909 539.935C273.945 539.977 271.975 540 270 540V539C271.968 539 273.931 538.979 275.889 538.937L275.909 539.935ZM240.7 537.423C244.572 537.842 248.469 538.179 252.389 538.433L252.324 539.43C248.39 539.175 244.479 538.837 240.593 538.416L240.7 537.423ZM299.406 538.416C295.52 538.837 291.609 539.175 287.675 539.43L287.611 538.433C291.531 538.179 295.428 537.842 299.3 537.423L299.406 538.416ZM217.5 533.88C221.327 534.637 225.184 535.313 229.068 535.906L228.917 536.894C225.019 536.298 221.147 535.62 217.306 534.86L217.5 533.88ZM322.693 534.86C318.852 535.62 314.981 536.298 311.082 536.894L310.932 535.906C314.816 535.313 318.673 534.637 322.5 533.88L322.693 534.86ZM194.695 528.317C198.442 529.408 202.224 530.419 206.036 531.349L205.799 532.32C201.972 531.387 198.176 530.372 194.415 529.277L194.695 528.317ZM345.583 529.277C341.822 530.372 338.028 531.387 334.201 532.32L333.964 531.349C337.776 530.419 341.558 529.408 345.305 528.317L345.583 529.277ZM172.473 520.775C176.111 522.191 179.788 523.531 183.501 524.791L183.18 525.736C179.453 524.471 175.762 523.127 172.11 521.706L172.473 520.775ZM367.889 521.706C364.237 523.127 360.546 524.471 356.819 525.736L356.499 524.791C360.212 523.531 363.889 522.191 367.527 520.775L367.889 521.706ZM150.999 511.313C154.501 513.044 158.046 514.7 161.632 516.28L161.43 516.736L161.431 516.737L161.229 517.193C157.629 515.607 154.071 513.945 150.556 512.208L150.999 511.313ZM389.443 512.208C385.928 513.945 382.37 515.607 378.771 517.193L378.569 516.737L378.368 516.28C381.954 514.7 385.499 513.044 389.001 511.313L389.443 512.208ZM130.435 500.008C133.774 502.038 137.161 503.999 140.594 505.886L140.352 506.323L140.353 506.324L140.111 506.761C136.666 504.867 133.267 502.899 129.915 500.861L130.435 500.008ZM410.084 500.861C406.732 502.899 403.333 504.867 399.888 506.761L399.647 506.324L399.406 505.886C402.839 503.999 406.226 502.038 409.565 500.008L410.084 500.861ZM110.931 486.95C114.082 489.265 117.286 491.513 120.54 493.691L120.261 494.106L120.262 494.107L119.983 494.521C116.717 492.335 113.501 490.078 110.338 487.755L110.931 486.95ZM429.661 487.755C426.498 490.078 423.282 492.335 420.016 494.521L419.46 493.691C422.714 491.513 425.919 489.265 429.07 486.95L429.661 487.755ZM92.6348 472.249C95.5747 474.829 98.5718 477.346 101.623 479.798L101.309 480.188L101.31 480.188L100.996 480.577C97.9335 478.116 94.9254 475.59 91.9746 473L92.6348 472.249ZM448.024 473C445.074 475.59 442.066 478.116 439.003 480.577L438.377 479.798C441.428 477.346 444.425 474.829 447.365 472.249L448.024 473ZM75.6836 456.017C78.3898 458.843 81.1572 461.61 83.9834 464.316L83.292 465.038C80.4553 462.322 77.6782 459.544 74.9619 456.707L75.6836 456.017ZM465.038 456.707C462.322 459.544 459.544 462.321 456.707 465.037L456.362 464.678L456.017 464.316C458.843 461.61 461.61 458.843 464.316 456.017L465.038 456.707ZM60.2021 438.377C62.6541 441.428 65.1707 444.425 67.751 447.365L67.375 447.694L66.999 448.024C64.4092 445.074 61.883 442.066 59.4219 439.003L59.8125 438.69L60.2021 438.377ZM480.188 438.69L480.577 439.003C478.116 442.066 475.59 445.074 473 448.024L472.249 447.365C474.829 444.425 477.346 441.428 479.798 438.377L480.188 438.69ZM46.3086 419.46C48.4872 422.714 50.7351 425.919 53.0498 429.07L52.2441 429.661C49.9207 426.498 47.6643 423.282 45.4775 420.016L46.3086 419.46ZM494.106 419.738L494.521 420.016C492.335 423.282 490.078 426.498 487.755 429.661L486.95 429.069C489.265 425.918 491.513 422.714 493.691 419.46L494.106 419.738ZM34.1143 399.406C36.0014 402.839 37.9616 406.226 39.9922 409.565L39.1377 410.084C37.0996 406.732 35.1324 403.333 33.2383 399.888L34.1143 399.406ZM506.761 399.888C504.867 403.333 502.899 406.732 500.861 410.084L500.008 409.565C502.038 406.226 503.999 402.839 505.886 399.406L506.761 399.888ZM23.7197 378.368C25.2999 381.954 26.9563 385.499 28.6865 389.001L27.791 389.443C26.0543 385.928 24.3918 382.37 22.8057 378.771L23.7197 378.368ZM516.736 378.569L517.193 378.771C515.607 382.37 513.945 385.928 512.208 389.443L511.313 389.001C513.044 385.499 514.7 381.954 516.28 378.368L516.736 378.569ZM15.209 356.499C16.4691 360.212 17.8087 363.889 19.2246 367.527L18.293 367.889C16.8717 364.237 15.5276 360.546 14.2627 356.819L15.209 356.499ZM525.736 356.819C524.471 360.546 523.127 364.237 521.706 367.889L520.775 367.527C522.191 363.889 523.531 360.212 524.791 356.499L525.736 356.819ZM8.65137 333.964C9.58124 337.776 10.5922 341.558 11.6826 345.305L10.7217 345.584C9.62714 341.823 8.61208 338.028 7.67871 334.201L8.65137 333.964ZM532.32 334.201C531.387 338.028 530.372 341.823 529.277 345.584L528.317 345.305C529.408 341.558 530.419 337.776 531.349 333.964L532.32 334.201ZM4.09375 310.932C4.68666 314.816 5.36296 318.673 6.12012 322.5L5.13867 322.693C4.37867 318.852 3.7006 314.981 3.10547 311.082L4.09375 310.932ZM536.894 311.082C536.298 314.981 535.62 318.852 534.86 322.693L533.88 322.5C534.637 318.673 535.313 314.815 535.906 310.932L536.894 311.082ZM1.56738 287.611C1.82067 291.531 2.15777 295.428 2.57715 299.3L1.58301 299.406C1.16207 295.52 0.82355 291.609 0.569336 287.675L1.56738 287.611ZM539.43 287.675C539.175 291.609 538.837 295.52 538.416 299.406L537.423 299.3C537.842 295.428 538.179 291.531 538.433 287.611L539.43 287.675ZM0 270C0 268.025 0.022254 266.055 0.0644531 264.09L1.06348 264.111C1.02143 266.069 1 268.032 1 270C1 271.968 1.02143 273.931 1.06348 275.889L0.0644531 275.909C0.0222679 273.945 0 271.975 0 270ZM540 270C540 271.975 539.977 273.945 539.935 275.909L538.937 275.889C538.979 273.931 539 271.968 539 270C539 268.032 538.979 266.069 538.937 264.111L539.935 264.09C539.977 266.055 540 268.025 540 270ZM1.58301 240.593L2.57715 240.7C2.15776 244.572 1.82067 248.469 1.56738 252.389L0.569336 252.324C0.821371 248.424 1.15636 244.547 1.57227 240.693L1.58301 240.593ZM538.416 240.593C538.837 244.479 539.175 248.39 539.43 252.324L538.433 252.389C538.179 248.469 537.842 244.572 537.423 240.7L538.416 240.593ZM5.13965 217.307L6.12012 217.5C5.36296 221.327 4.68666 225.184 4.09375 229.068L3.10547 228.917C3.70061 225.019 4.37865 221.147 5.13867 217.306L5.13965 217.307ZM534.86 217.306C535.62 221.147 536.298 225.019 536.894 228.917L535.906 229.068C535.313 225.185 534.637 221.327 533.88 217.5L534.86 217.306ZM10.7227 194.416L11.6826 194.695C10.5922 198.442 9.58124 202.224 8.65137 206.036L7.67969 205.799L7.67871 205.798C8.61209 201.971 9.62713 198.176 10.7217 194.415L10.7227 194.416ZM529.277 194.416C530.372 198.177 531.387 201.971 532.32 205.798L531.349 206.036C530.419 202.224 529.408 198.442 528.317 194.695L529.277 194.416ZM19.2246 172.473C17.8087 176.111 16.4691 179.788 15.209 183.501L14.2627 183.18C15.5276 179.453 16.8717 175.762 18.293 172.11L19.2246 172.473ZM521.706 172.11C523.127 175.762 524.471 179.453 525.736 183.18L524.791 183.501C523.531 179.788 522.191 176.111 520.775 172.473L521.706 172.11ZM28.6865 150.999C26.9563 154.501 25.2999 158.046 23.7197 161.632L23.2627 161.43L22.8057 161.229C24.3918 157.629 26.0543 154.071 27.791 150.556L28.6865 150.999ZM512.208 150.556C513.945 154.071 515.607 157.629 517.193 161.229L516.737 161.431L516.736 161.43L516.28 161.632C514.7 158.046 513.044 154.501 511.313 150.999L512.208 150.556ZM39.1377 129.915L39.9922 130.435C37.9617 133.774 36.0014 137.161 34.1143 140.594L33.6758 140.352L33.2383 140.111C35.1173 136.694 37.0682 133.321 39.0889 129.995L39.1377 129.915ZM500.861 129.915C502.899 133.267 504.867 136.666 506.761 140.111L506.324 140.353L506.323 140.352L505.886 140.594C503.999 137.161 502.038 133.774 500.008 130.435L500.861 129.915ZM53.0498 110.931C50.7351 114.082 48.4871 117.286 46.3086 120.54L45.4775 119.983C47.6643 116.717 49.9207 113.501 52.2441 110.338L53.0498 110.931ZM487.755 110.338C490.078 113.501 492.335 116.717 494.521 119.983L493.691 120.54C491.513 117.286 489.265 114.081 486.95 110.93L487.755 110.338ZM67 91.9756L67.751 92.6348C65.1707 95.5747 62.6541 98.5718 60.2021 101.623L59.4219 100.996C61.883 97.9335 64.4092 94.9254 66.999 91.9746L67 91.9756ZM473 91.9746C475.59 94.9254 478.116 97.9335 480.577 100.996L479.798 101.623C477.346 98.5718 474.829 95.5747 472.249 92.6348L473 91.9746ZM83.9834 75.6836C81.1572 78.3898 78.3898 81.1572 75.6836 83.9834L74.9609 83.292C77.6772 80.4553 80.4553 77.6782 83.292 74.9619L83.9834 75.6836ZM456.707 74.9609C459.544 77.6772 462.321 80.4553 465.037 83.292L464.678 83.6377L464.677 83.6367L464.316 83.9834C461.61 81.1572 458.843 78.3898 456.017 75.6836L456.707 74.9609ZM101.623 60.2021C98.5718 62.6541 95.5747 65.1707 92.6348 67.751L91.9756 67L91.9746 66.999C94.9254 64.4092 97.9335 61.883 100.996 59.4219L101.623 60.2021ZM439.003 59.4219C442.066 61.883 445.074 64.4092 448.024 66.999L447.365 67.751C444.425 65.1707 441.428 62.6541 438.377 60.2021L439.003 59.4219ZM120.54 46.3086C117.286 48.4872 114.081 50.7351 110.93 53.0498L110.338 52.2441C113.501 49.9207 116.717 47.6643 119.983 45.4775L120.54 46.3086ZM420.016 45.4775C423.282 47.6643 426.498 49.9207 429.661 52.2441L429.069 53.0498C425.918 50.7351 422.714 48.4871 419.46 46.3086L420.016 45.4775ZM140.594 34.1143C137.161 36.0014 133.774 37.9616 130.435 39.9922L129.915 39.1377C133.267 37.0996 136.666 35.1324 140.111 33.2383L140.594 34.1143ZM399.888 33.2383C403.333 35.1324 406.732 37.0996 410.084 39.1377L409.565 39.9922C406.226 37.9617 402.839 36.0014 399.406 34.1143L399.888 33.2383ZM161.632 23.7197C158.046 25.2999 154.501 26.9563 150.999 28.6865L150.556 27.791C154.071 26.0543 157.629 24.3918 161.229 22.8057L161.632 23.7197ZM378.771 22.8057C382.37 24.3918 385.928 26.0543 389.443 27.791L389.001 28.6865C385.499 26.9563 381.954 25.2999 378.368 23.7197L378.771 22.8057ZM183.501 15.209C179.788 16.4691 176.111 17.8087 172.473 19.2246L172.11 18.293C175.762 16.8717 179.453 15.5276 183.18 14.2627L183.501 15.209ZM356.819 14.2627C360.546 15.5276 364.237 16.8717 367.889 18.293L367.527 19.2246C363.889 17.8087 360.212 16.4691 356.499 15.209L356.819 14.2627ZM205.799 7.67969L206.036 8.65137C202.224 9.58124 198.442 10.5922 194.695 11.6826L194.416 10.7227L194.415 10.7217C198.176 9.62713 201.971 8.61209 205.798 7.67871L205.799 7.67969ZM334.201 7.67871C338.028 8.61208 341.823 9.62714 345.584 10.7217L345.305 11.6826C341.558 10.5922 337.776 9.58124 333.964 8.65137L334.201 7.67871ZM229.068 4.09375C225.185 4.68666 221.327 5.36296 217.5 6.12012L217.307 5.13965L217.306 5.13867C221.147 4.37865 225.019 3.70061 228.917 3.10547L229.068 4.09375ZM311.082 3.10547C314.98 3.7006 318.852 4.37867 322.693 5.13867L322.5 6.12012C318.673 5.36296 314.815 4.68666 310.932 4.09375L311.082 3.10547ZM252.389 1.56738C248.469 1.82067 244.572 2.15776 240.7 2.57715L240.593 1.58301C244.479 1.16206 248.39 0.823564 252.324 0.569336L252.389 1.56738ZM287.675 0.569336C291.609 0.82355 295.52 1.16207 299.406 1.58301L299.3 2.57715C295.428 2.15776 291.531 1.82067 287.611 1.56738L287.675 0.569336ZM270 0C271.975 0 273.945 0.0222679 275.909 0.0644531L275.889 1.06348C273.931 1.02143 271.968 1 270 1C268.032 1 266.069 1.02143 264.111 1.06348L264.09 0.0644531C266.055 0.0222539 268.025 0 270 0Z" fill="currentColor"/>
</svg>
