<svg viewBox="0 0 77 1" xmlns="http://www.w3.org/2000/svg">
<path d="M4.2998 0C4.57595 0 4.7998 0.223858 4.7998 0.5C4.7998 0.776142 4.57595 1 4.2998 1H0.5C0.223858 1 0 0.776142 0 0.5C0 0.223858 0.223858 0 0.5 0H4.2998ZM19.5 0C19.7761 0 20 0.223858 20 0.5C20 0.776142 19.7761 1 19.5 1H11.9004C11.6242 1 11.4004 0.776142 11.4004 0.5C11.4004 0.223858 11.6242 0 11.9004 0H19.5ZM34.7002 0C34.9762 0.000105113 35.2002 0.223922 35.2002 0.5C35.2002 0.776078 34.9762 0.999895 34.7002 1H27.0996C26.8236 0.999789 26.5996 0.776012 26.5996 0.5C26.5996 0.223988 26.8236 0.000211195 27.0996 0H34.7002ZM49.9004 0C50.1764 0.000212226 50.4004 0.223989 50.4004 0.5C50.4004 0.776011 50.1764 0.999788 49.9004 1H42.2998C42.0238 0.999895 41.7998 0.776078 41.7998 0.5C41.7998 0.223922 42.0238 0.000105113 42.2998 0H49.9004ZM65.0996 0C65.3757 0 65.5996 0.223858 65.5996 0.5C65.5996 0.776142 65.3757 1 65.0996 1H57.5C57.2239 1 57 0.776142 57 0.5C57 0.223858 57.2239 0 57.5 0H65.0996ZM76.5 0C76.7761 0 77 0.223858 77 0.5C77 0.776142 76.7761 1 76.5 1H72.7002C72.4241 1 72.2002 0.776142 72.2002 0.5C72.2002 0.223858 72.4241 0 72.7002 0H76.5Z" fill="currentColor"/>
</svg>
