<svg viewBox="0 0 24 24" xmlns="http://www.w3.org/2000/svg"><path d="M4.5 4.807c-.748.14-1.498.872-1.678 1.637-.053.222-.061.969-.061 5.556 0 5.841-.011 5.562.25 6.056.166.314.619.767.933.933.501.265.009.25 8.056.25 8.047 0 7.555.015 8.056-.25.314-.166.767-.619.933-.933.261-.494.25-.215.25-6.056s.011-5.562-.25-6.056c-.188-.357-.62-.772-.989-.952a2.503 2.503 0 0 0-.537-.189c-.306-.055-14.669-.052-14.963.004m14.866.491c.368.078.571.192.864.485.287.287.446.59.475.907l.02.21-4.328 2.88c-2.38 1.584-4.359 2.88-4.397 2.88-.038 0-2.017-1.296-4.397-2.88L3.275 6.9l.02-.21c.029-.317.188-.62.475-.907.287-.288.497-.408.846-.483.373-.082 14.366-.084 14.75-.002M7.6 10.36c2.376 1.584 4.356 2.88 4.4 2.88.044 0 2.024-1.296 4.4-2.88a618.545 618.545 0 0 1 4.34-2.88c.011 0 .02 2.164.019 4.81 0 5.136 0 5.12-.195 5.503-.232.453-.767.846-1.264.927-.326.054-14.274.054-14.6 0-.497-.081-1.032-.474-1.264-.927-.195-.383-.195-.367-.195-5.503-.001-2.646.008-4.81.019-4.81s1.964 1.296 4.34 2.88" fill-rule="evenodd" fill="currentColor"/></svg>