<svg viewBox="0 0 149 34" xmlns="http://www.w3.org/2000/svg">
<path d="M13.626 24.4491L13.1809 23.8437L16.3307 24.4491V25.9288L11.5376 26.1306L11.1268 22.9021L11.3664 23.003C10.3622 24.0791 9.27801 24.8975 8.11398 25.458C6.94995 25.996 5.82016 26.2651 4.7246 26.2651C3.4008 26.2651 2.28241 25.8503 1.36945 25.0208C0.456483 24.1912 0 22.9357 0 21.2542C0 19.9314 0.285302 18.9225 0.855905 18.2275C1.42651 17.5101 2.21394 17.0056 3.2182 16.7141C4.22247 16.4227 5.3865 16.277 6.7103 16.277H11.1952L10.8871 16.6133V13.3848C10.8871 12.1517 10.5562 11.2773 9.89427 10.7616C9.23236 10.2235 8.3194 9.9545 7.15537 9.9545C6.53912 9.9545 5.87722 10.0218 5.16967 10.1563C4.48494 10.2684 3.75457 10.459 2.97855 10.728L3.38939 10.2908L3.04702 13.3511H1.2325L0.958614 9.18101C2.25959 8.75503 3.48068 8.44115 4.62189 8.23937C5.7631 8.01517 6.81301 7.90307 7.77162 7.90307C9.59755 7.90307 11.0241 8.30663 12.0511 9.11375C13.1011 9.89845 13.626 11.1652 13.626 12.9139V24.4491ZM2.77313 21.0188C2.77313 22.1174 3.03561 22.9245 3.56057 23.4402C4.10835 23.9558 4.79307 24.2136 5.61474 24.2136C6.41358 24.2136 7.29231 23.9782 8.25093 23.5074C9.23236 23.0142 10.1796 22.3528 11.0925 21.5232L10.8871 22.2295V17.723L11.1952 18.0257H7.12113C5.50062 18.0257 4.37082 18.2723 3.73175 18.7656C3.09267 19.2364 2.77313 19.9875 2.77313 21.0188Z" fill="currentColor"/>
<path d="M18.2779 25.9624V24.5163L21.2906 23.8773L20.9483 24.3818V9.88724L21.3249 10.3917L18.2779 9.75272V8.30663L23.0709 8.07122L23.4475 11.367L23.0709 11.2324C24.098 10.1787 25.1023 9.36037 26.0837 8.77745C27.0652 8.19453 28.1379 7.90307 29.3019 7.90307C30.0323 7.90307 30.7969 8.01517 31.5957 8.23937L31.3903 13.1494H29.6785L29.2677 9.6182L29.5758 10.2235C29.416 10.1787 29.2449 10.1451 29.0623 10.1227C28.8797 10.1002 28.6971 10.089 28.5145 10.089C27.6015 10.089 26.7114 10.3581 25.8441 10.8961C24.9996 11.4342 24.1893 12.1292 23.4133 12.9812L23.6872 12.1741V24.3818L23.2763 23.8773L27.0081 24.5163V25.9624H18.2779Z" fill="currentColor"/>
<path d="M39.4832 26.2651C38.2963 26.2651 37.3605 25.9064 36.6758 25.1889C35.9911 24.4491 35.6487 23.3393 35.6487 21.8595V9.65183L36.0938 10.089H32.5675V8.6093L36.128 8.10485L35.6487 8.64293V4.20376L38.3876 3.76657V8.64293L38.011 8.20574H43.3861L43.2834 10.089H38.011L38.3876 9.65183V21.4896C38.3876 22.4313 38.5702 23.1151 38.9354 23.541C39.3234 23.967 39.8598 24.18 40.5445 24.18C40.9553 24.18 41.4004 24.1128 41.8797 23.9782C42.359 23.8437 42.8726 23.6532 43.4203 23.4065L44.0024 24.9535C42.3818 25.8279 40.8755 26.2651 39.4832 26.2651Z" fill="currentColor"/>
<path d="M53.5409 26.2651C52.0117 26.2651 50.6536 25.9288 49.4668 25.2562C48.3027 24.5612 47.3898 23.5523 46.7279 22.2295C46.066 20.9067 45.735 19.2924 45.735 17.3867C45.735 15.4362 46.0774 13.7547 46.7621 12.3422C47.4468 10.9298 48.4169 9.8424 49.6722 9.08012C50.9275 8.29542 52.3997 7.90307 54.0887 7.90307C55.6864 7.90307 56.9987 8.23937 58.0258 8.91197C59.0757 9.56215 59.8518 10.4702 60.3539 11.636C60.8788 12.8018 61.1413 14.1358 61.1413 15.638C61.1413 15.8846 61.1299 16.1312 61.1071 16.3778C61.0843 16.6245 61.05 16.9271 61.0044 17.2859H47.8234V15.3689H58.6078L58.2997 15.5707C58.3225 14.5618 58.197 13.6314 57.9231 12.7794C57.6492 11.9275 57.1813 11.2437 56.5194 10.728C55.8575 10.2123 54.9788 9.9545 53.8833 9.9545C52.7192 9.9545 51.7378 10.2572 50.9389 10.8625C50.1401 11.4679 49.5467 12.2974 49.1586 13.3511C48.7706 14.4049 48.5766 15.6268 48.5766 17.0168C48.5766 18.4965 48.7935 19.7745 49.2271 20.8506C49.6608 21.9044 50.2884 22.7227 51.1101 23.3056C51.9546 23.8886 52.9817 24.18 54.1914 24.18C55.0359 24.18 55.9602 24.0231 56.9645 23.7092C57.9688 23.3729 59.0073 22.8684 60.08 22.1958L61.0729 23.7092C59.7947 24.5612 58.5166 25.2001 57.2384 25.6261C55.9602 26.0521 54.7277 26.2651 53.5409 26.2651Z" fill="currentColor"/>
<path d="M72.8801 7.90307C75.3907 7.90307 77.3536 8.67656 78.7687 10.2235C80.2066 11.7705 80.9256 13.9565 80.9256 16.7814C80.9256 18.6871 80.5718 20.3574 79.8643 21.7923C79.1795 23.2047 78.1981 24.3033 76.9199 25.088C75.6418 25.8727 74.1012 26.2651 72.298 26.2651C69.833 26.2651 67.9044 25.514 66.5121 24.0119C65.1199 22.4873 64.4237 20.3014 64.4237 17.454C64.4237 15.481 64.7547 13.7883 65.4166 12.3759C66.1013 10.941 67.0713 9.8424 68.3267 9.08012C69.6048 8.29542 71.1226 7.90307 72.8801 7.90307ZM72.7431 9.88724C70.9857 9.88724 69.639 10.5374 68.7032 11.8378C67.7675 13.1381 67.2996 14.9654 67.2996 17.3195C67.2996 19.6288 67.7446 21.3663 68.6348 22.5321C69.5249 23.698 70.8031 24.2809 72.4692 24.2809C73.6789 24.2809 74.6946 23.9895 75.5163 23.4065C76.3607 22.8012 76.9884 21.9492 77.3992 20.8506C77.8329 19.7521 78.0497 18.4405 78.0497 16.9159C78.0497 14.6291 77.5818 12.8915 76.646 11.7033C75.7331 10.4926 74.4321 9.88724 72.7431 9.88724Z" fill="currentColor"/>
<path d="M88.7724 24.2473L88.4642 23.8773L91.4428 24.5163V25.9624H83.3288V24.5163L86.3073 23.8773L86.0335 24.2473V1.98417L86.3073 2.28684L83.3288 1.6815V0.235409L88.7724 0V24.2473Z" fill="currentColor"/>
<path d="M102.335 7.90307C104.846 7.90307 106.809 8.67656 108.224 10.2235C109.662 11.7705 110.381 13.9565 110.381 16.7814C110.381 18.6871 110.027 20.3574 109.319 21.7923C108.635 23.2047 107.653 24.3033 106.375 25.088C105.097 25.8727 103.556 26.2651 101.753 26.2651C99.2882 26.2651 97.3596 25.514 95.9673 24.0119C94.575 22.4873 93.8789 20.3014 93.8789 17.454C93.8789 15.481 94.2098 13.7883 94.8717 12.3759C95.5565 10.941 96.5265 9.8424 97.7818 9.08012C99.06 8.29542 100.578 7.90307 102.335 7.90307ZM102.198 9.88724C100.441 9.88724 99.0942 10.5374 98.1584 11.8378C97.2226 13.1381 96.7547 14.9654 96.7547 17.3195C96.7547 19.6288 97.1998 21.3663 98.09 22.5321C98.9801 23.698 100.258 24.2809 101.924 24.2809C103.134 24.2809 104.15 23.9895 104.971 23.4065C105.816 22.8012 106.444 21.9492 106.854 20.8506C107.288 19.7521 107.505 18.4405 107.505 16.9159C107.505 14.6291 107.037 12.8915 106.101 11.7033C105.188 10.4926 103.887 9.88724 102.198 9.88724Z" fill="currentColor"/>
<path d="M121.001 34C118.33 34 116.333 33.6189 115.009 32.8566C113.686 32.0943 113.024 30.9957 113.024 29.5608C113.024 28.5519 113.366 27.6551 114.051 26.8704C114.735 26.0857 115.74 25.4019 117.063 24.819L117.098 25.3571C116.367 25.3122 115.808 25.1665 115.42 24.9199C115.032 24.6508 114.838 24.2809 114.838 23.8101C114.838 23.6307 114.861 23.4514 114.907 23.272C114.952 23.0926 115.032 22.846 115.146 22.5321C115.283 22.1958 115.477 21.7587 115.728 21.2206C116.002 20.6601 116.345 19.9314 116.755 19.0346L116.824 19.5054C115.842 18.9898 115.089 18.2948 114.564 17.4204C114.039 16.5236 113.777 15.4698 113.777 14.2591C113.777 12.3086 114.427 10.7616 115.728 9.6182C117.052 8.47478 118.867 7.90307 121.172 7.90307C122.724 7.90307 124.059 8.17211 125.177 8.71019L124.424 8.54204L129.799 8.30663L129.834 9.92087L126.65 10.5262L126.889 10.1227C127.369 10.5711 127.734 11.1203 127.985 11.7705C128.236 12.4207 128.361 13.1606 128.361 13.9901C128.361 15.9631 127.688 17.5213 126.342 18.6647C124.995 19.8081 123.203 20.3798 120.966 20.3798C119.688 20.3798 118.513 20.1668 117.44 19.7409L118.056 19.4382L117.166 23.8437L116.584 23.5074H123.294C125.486 23.5074 127.152 23.9334 128.293 24.7854C129.434 25.6149 130.005 26.8144 130.005 28.3838C130.005 30.1998 129.24 31.5898 127.711 32.5539C126.205 33.518 123.968 34 121.001 34ZM121.24 31.9486C123.317 31.9486 124.858 31.6683 125.862 31.1078C126.866 30.5473 127.369 29.7066 127.369 28.5856C127.369 27.5991 126.992 26.848 126.239 26.3323C125.486 25.8391 124.356 25.5925 122.849 25.5925H117.406L118.193 25.4243C116.367 26.5453 115.454 27.756 115.454 29.0564C115.454 30.0204 115.922 30.7379 116.858 31.2087C117.817 31.7019 119.277 31.9486 121.24 31.9486ZM120.966 18.4965C122.427 18.4965 123.568 18.1154 124.39 17.3531C125.212 16.5684 125.623 15.4698 125.623 14.0574C125.623 12.6449 125.235 11.58 124.459 10.8625C123.683 10.1451 122.576 9.78635 121.138 9.78635C119.677 9.78635 118.547 10.1675 117.748 10.9298C116.949 11.6696 116.55 12.757 116.55 14.1919C116.55 15.5819 116.927 16.6469 117.68 17.3867C118.456 18.1266 119.551 18.4965 120.966 18.4965Z" fill="currentColor"/>
<path d="M131.266 33.8319L131.505 31.8477C131.779 31.8925 132.03 31.9261 132.258 31.9486C132.51 31.971 132.738 31.9822 132.943 31.9822C134.062 31.9822 134.963 31.7244 135.648 31.2087C136.355 30.7155 136.949 29.9644 137.428 28.9555C137.907 27.9466 138.398 26.6911 138.9 25.1889L138.798 26.1978L132.395 9.81998L132.772 10.1227L130.547 9.75272V8.30663L138.044 8.07122V9.55094L134.963 10.0554L135.169 9.75272L140.27 24.0455L139.654 23.911L144.549 9.81998L144.755 10.1227L141.742 9.75272V8.30663L149 8.07122V9.55094L146.603 10.089L147.083 9.78635L141.057 26.0297C140.646 27.1507 140.213 28.1932 139.756 29.1573C139.323 30.1213 138.82 30.9621 138.25 31.6795C137.679 32.4194 136.983 32.9911 136.161 33.3947C135.34 33.7982 134.347 34 133.183 34C132.658 34 132.019 33.944 131.266 33.8319Z" fill="currentColor"/>
</svg>
