<svg width="67" height="313" viewBox="0 0 67 313" fill="none" xmlns="http://www.w3.org/2000/svg">
<path d="M58.5787 313L51.3605 308.937C53.5198 305.921 55.1547 302.935 56.2652 299.98C57.3757 297.025 57.9309 294.163 57.9309 291.393C57.9309 287.945 57.0364 284.837 55.2472 282.066C53.4581 279.235 50.6819 277.019 46.9185 275.418C43.1552 273.817 38.3738 273.017 32.5746 273.017C27.639 273.017 23.413 273.694 19.8964 275.049C16.3181 276.403 13.5727 278.434 11.6602 281.143C9.68601 283.852 8.6989 287.237 8.6989 291.3C8.6989 295.179 9.59346 299.642 11.3826 304.689L9.62431 302.473L20.3591 304.412V311.246L4.99724 311.984C1.66575 303.674 0 296.133 0 289.361C0 283.575 1.23389 278.588 3.70166 274.402C6.16943 270.155 9.8094 266.861 14.6216 264.522C19.4337 262.183 25.2947 261.013 32.2044 261.013C39.7311 261.013 46.0856 262.337 51.268 264.984C56.3886 267.631 60.3062 271.17 63.0207 275.603C65.6736 279.973 67 284.806 67 290.1C67 293.855 66.3214 297.702 64.9641 301.642C63.5451 305.521 61.4167 309.306 58.5787 313ZM36.5539 299.796H28.7804L28.7804 268.216H36.5539V299.796Z" fill="#1E1E1E"/>
<path d="M65.982 244.95H60.2445L57.8384 234.516L60.7072 236.64H7.40332L9.25414 234.331L9.25414 250.306L7.03315 247.721L18.7859 249.937V256.77H1.01796L1.01796 205.152H18.7859V211.985L7.40332 214.109L9.25414 211.616V227.591L7.40332 225.282H60.7072L57.8384 227.314L60.2445 216.972H65.982V244.95Z" fill="#1E1E1E"/>
<path d="M65.982 201.183H60.2445L57.9309 192.411L60.2445 193.981H7.03315L9.43923 192.042L7.21823 201.183H1.48067L1.01796 175.421H6.75553L9.43923 184.377L6.94061 182.623H47.1961L46.5483 184.47L9.71685 151.689L12.4931 152.797H7.03315L9.43923 150.951L7.21823 159.908H1.48067L1.01796 134.237H6.75553L9.43923 143.009L6.94061 141.44H60.2445L57.9309 143.009L60.2445 134.237H65.982V159.908H60.2445L57.9309 151.228L60.2445 152.797H19.4337L20.4517 150.951L57.0981 183.546L54.5994 182.623H60.2445L57.9309 184.1L60.2445 175.421H65.982L65.982 201.183Z" fill="#1E1E1E"/>
<path d="M60.337 70.8292L58.0235 73.9687L60.2445 65.8428H65.982V90.9591H60.2445L58.0235 83.5719L59.9669 83.849L34.703 100.562L36.924 97.4228V110.166L34.6105 108.319H60.2445L57.7459 109.796L60.2445 101.393H65.982V126.879H60.2445L58.0235 118.384L60.2445 119.677H6.94061L9.1616 118.384L7.21823 126.879H1.48067L1.01796 101.393H6.66299L9.1616 109.796L6.75553 108.319H30.5387L28.6878 110.166L28.6878 96.7764L30.4461 99.8236L7.12569 85.8804L8.88398 84.957L7.21823 93.0829H1.48067L1.01796 68.9824H6.75553L9.1616 77.4776L7.21823 74.8921L33.6851 91.2361H30.7238L60.337 70.8292Z" fill="#1E1E1E"/>
<path d="M60.5221 5.17102L57.8384 8.21817L60.2445 0H65.982V25.6703H60.2445L58.0235 17.0827L59.6892 18.1908L46.7334 22.3461L48.2141 20.4993L48.2141 46.1696L46.826 44.6921L59.5041 49.1244L58.3011 49.4938L60.2445 41.4603H65.982V65.0991H60.2445L57.9309 57.1579L60.2445 59.7434L1.20304 37.6743L0.832873 26.132L60.5221 5.17102ZM41.8287 43.2147L40.2555 44.0458L40.2555 22.4384L42.1063 23.5465L7.21823 33.9808L7.31078 31.3953L41.8287 43.2147Z" fill="#1E1E1E"/>
</svg>
