<svg width="63" height="546" viewBox="0 0 63 546" fill="none" xmlns="http://www.w3.org/2000/svg">
<path d="M4.87795 505.075L6.94488 512.743L5.7874 511.576H57.378L56.2205 512.743L58.122 505.075H63V526.663H58.122L56.3032 519.078L57.378 520.161H5.7874L7.02756 518.744L5.29134 526.663H0.413385L0 505.075H4.87795ZM52.5827 517.244C52.5827 523.523 51.8661 528.802 50.4331 533.081C48.9449 537.359 46.7126 540.582 43.7362 542.749C40.7598 544.916 36.9016 546 32.1614 546C27.1457 546 23.0669 544.805 19.9252 542.416C16.7283 540.027 14.3858 536.554 12.8976 531.997C11.4094 527.385 10.6654 521.828 10.6654 515.327C10.6654 510.493 11.0787 506.242 11.9055 502.574C12.6772 498.851 13.8898 495.74 15.5433 493.239C17.1968 490.739 19.2913 488.877 21.8268 487.655C24.3071 486.377 27.2835 485.738 30.7559 485.738C35.6063 485.738 39.6575 486.96 42.9095 489.405C46.1063 491.794 48.5315 495.323 50.185 499.991C51.7835 504.658 52.5827 510.409 52.5827 517.244ZM46.7953 516.327C46.7953 512.104 46.3268 508.492 45.3898 505.492C44.3976 502.491 42.7717 500.213 40.5118 498.657C38.1969 497.046 35.0827 496.24 31.1693 496.24C27.4764 496.24 24.5827 496.962 22.4882 498.407C20.3386 499.852 18.7953 502.019 17.8583 504.908C16.9213 507.798 16.4528 511.41 16.4528 515.744C16.4528 519.967 16.9213 523.551 17.8583 526.496C18.7953 529.441 20.3661 531.692 22.5709 533.247C24.7756 534.748 27.8346 535.498 31.748 535.498C35.3307 535.498 38.2244 534.803 40.4291 533.414C42.5787 532.025 44.1772 529.913 45.2244 527.079C46.2165 524.246 46.7402 520.661 46.7953 516.327Z" fill="#1E1E1E"/>
<path d="M61.3465 480.475H56.2205L54.1535 472.557L56.2205 473.974H8.6811L10.8307 472.224L8.84646 480.475H3.72047L3.30709 457.221H8.43307L10.8307 465.306L8.59843 463.722H44.563L43.9843 465.389L11.0787 435.8L13.5591 436.8H8.6811L10.8307 435.133L8.84646 443.218H3.72047L3.30709 420.046H8.43307L10.8307 427.965L8.59843 426.548H56.2205L54.1535 427.965L56.2205 420.046H61.3465V443.218H56.2205L54.1535 435.383L56.2205 436.8H19.7598L20.6693 435.133L53.4095 464.556L51.1772 463.722H56.2205L54.1535 465.056L56.2205 457.221H61.3465V480.475Z" fill="#1E1E1E"/>
<path d="M62.4213 409.487C62.4213 411.376 62.063 413.627 61.3465 416.238L51.9213 414.655C52.1968 413.543 52.3346 412.543 52.3346 411.654C52.3346 409.654 51.7008 407.959 50.4331 406.57C49.1654 405.181 47.4016 404.069 45.1417 403.236C42.8819 402.347 40.3189 401.652 37.4528 401.152C34.5866 400.652 31.5276 400.291 28.2756 400.068C25.0236 399.846 21.7717 399.679 18.5197 399.568C15.2677 399.402 12.126 399.29 9.09449 399.235L10.8307 397.735L8.84646 405.736H3.72047L3.30709 391.567L3.30709 359.81H8.43307L10.8307 367.728L8.59843 366.311H56.2205L54.1535 367.728L56.2205 359.81H61.3465L61.3465 384.065H56.2205L54.1535 375.147L56.2205 376.564H8.26772L10.6654 374.897L10.6654 393.15L8.76378 391.15C13.0079 391.428 17.2795 391.678 21.5787 391.9C25.8228 392.067 29.9567 392.345 33.9803 392.734C37.9488 393.123 41.6693 393.678 45.1417 394.401C48.5591 395.067 51.563 396.04 54.1535 397.318C56.7441 398.54 58.7835 400.152 60.2717 402.152C61.7047 404.097 62.4213 406.542 62.4213 409.487Z" fill="#1E1E1E"/>
<path d="M62.2559 326.915C62.2559 332.028 61.1535 336.501 58.9488 340.335C56.7441 344.169 53.4646 347.17 49.1102 349.337C44.7559 351.448 39.3819 352.504 32.9882 352.504C27.9173 352.504 23.4803 351.837 19.6772 350.504C15.8189 349.17 12.6221 347.281 10.0866 344.836C7.49606 342.391 5.56693 339.529 4.29921 336.251C3.03149 332.917 2.39764 329.249 2.39764 325.248C2.39764 321.359 3.03149 317.83 4.29921 314.663C5.51181 311.44 7.33071 308.689 9.75591 306.411C12.1811 304.077 15.185 302.271 18.7677 300.993C22.3504 299.66 26.5118 298.993 31.252 298.993C37.7559 298.993 43.3228 300.188 47.9528 302.577C52.5276 304.911 56.0551 308.162 58.5354 312.329C61.0158 316.497 62.2559 321.359 62.2559 326.915ZM54.4016 326.165C54.4016 323.165 53.6575 320.47 52.1693 318.08C50.6811 315.635 48.2835 313.69 44.9764 312.246C41.6693 310.745 37.2598 309.995 31.748 309.995C26.622 309.995 22.4882 310.69 19.3465 312.079C16.1496 313.413 13.8346 315.246 12.4016 317.58C10.9685 319.914 10.252 322.637 10.252 325.748C10.252 328.693 10.9685 331.388 12.4016 333.833C13.8346 336.223 16.2047 338.112 19.5118 339.501C22.7638 340.835 27.1457 341.502 32.6575 341.502C37.7835 341.502 41.9449 340.863 45.1417 339.585C48.3386 338.307 50.6811 336.528 52.1693 334.25C53.6575 331.916 54.4016 329.221 54.4016 326.165Z" fill="#1E1E1E"/>
<path d="M62.2559 266.459C62.2559 270.96 61.1535 275.1 58.9488 278.878C56.689 282.601 53.3543 285.574 48.9449 287.797C44.5354 290.019 39.1063 291.131 32.6575 291.131C26.3189 291.131 20.8898 290.047 16.3701 287.88C11.8504 285.657 8.40551 282.546 6.03543 278.545C3.61024 274.544 2.39764 269.876 2.39764 264.542C2.39764 261.652 2.7559 258.707 3.47244 255.707C4.13386 252.651 5.1811 249.428 6.61417 246.038L20.9173 246.705V252.789L10.9961 254.623L12.7323 252.873C11.9055 254.929 11.2992 256.929 10.9134 258.874C10.4724 260.763 10.252 262.541 10.252 264.208C10.252 267.598 11.1063 270.488 12.815 272.877C14.4685 275.211 16.8937 277.017 20.0906 278.295C23.2323 279.517 26.9803 280.128 31.3346 280.128C36.3504 280.128 40.5394 279.434 43.9016 278.045C47.2638 276.655 49.7992 274.738 51.5079 272.293C53.1614 269.793 53.9882 266.987 53.9882 263.875C53.9882 261.597 53.5197 259.18 52.5827 256.624C51.5906 254.068 50.0748 251.539 48.0354 249.039L53.9882 245.205C56.7441 248.594 58.811 252.123 60.189 255.79C61.5669 259.402 62.2559 262.958 62.2559 266.459Z" fill="#1E1E1E"/>
<path d="M62.2559 214.506C62.2559 219.618 61.1535 224.092 58.9488 227.926C56.7441 231.76 53.4646 234.76 49.1102 236.927C44.7559 239.039 39.3819 240.095 32.9882 240.095C27.9173 240.095 23.4803 239.428 19.6772 238.094C15.8189 236.761 12.6221 234.872 10.0866 232.427C7.49606 229.982 5.56693 227.12 4.29921 223.841C3.03149 220.507 2.39764 216.84 2.39764 212.839C2.39764 208.95 3.03149 205.421 4.29921 202.254C5.51181 199.031 7.33071 196.28 9.75591 194.002C12.1811 191.668 15.185 189.862 18.7677 188.584C22.3504 187.251 26.5118 186.584 31.252 186.584C37.7559 186.584 43.3228 187.779 47.9528 190.168C52.5276 192.502 56.0551 195.752 58.5354 199.92C61.0158 204.087 62.2559 208.95 62.2559 214.506ZM54.4016 213.756C54.4016 210.755 53.6575 208.06 52.1693 205.671C50.6811 203.226 48.2835 201.281 44.9764 199.837C41.6693 198.336 37.2598 197.586 31.748 197.586C26.622 197.586 22.4882 198.281 19.3465 199.67C16.1496 201.003 13.8346 202.837 12.4016 205.171C10.9685 207.505 10.252 210.228 10.252 213.339C10.252 216.284 10.9685 218.979 12.4016 221.424C13.8346 223.814 16.2047 225.703 19.5118 227.092C22.7638 228.426 27.1457 229.093 32.6575 229.093C37.7835 229.093 41.9449 228.454 45.1417 227.175C48.3386 225.897 50.6811 224.119 52.1693 221.841C53.6575 219.507 54.4016 216.812 54.4016 213.756Z" fill="#1E1E1E"/>
<path d="M4.87795 138.463L6.94488 146.132L5.7874 144.965H57.378L56.2205 146.132L58.122 138.463H63L63 160.051H58.122L56.3032 152.466L57.378 153.55H5.7874L7.02756 152.133L5.29134 160.051H0.413385L0 138.463H4.87795ZM52.5827 150.632C52.5827 156.911 51.8661 162.19 50.4331 166.469C48.9449 170.748 46.7126 173.971 43.7362 176.138C40.7598 178.305 36.9016 179.388 32.1614 179.388C27.1457 179.388 23.0669 178.194 19.9252 175.804C16.7283 173.415 14.3858 169.942 12.8976 165.385C11.4094 160.773 10.6654 155.217 10.6654 148.715C10.6654 143.881 11.0787 139.63 11.9055 135.963C12.6772 132.24 13.8898 129.128 15.5433 126.628C17.1968 124.127 19.2913 122.266 21.8268 121.043C24.3071 119.765 27.2835 119.126 30.7559 119.126C35.6063 119.126 39.6575 120.348 42.9095 122.793C46.1063 125.183 48.5315 128.711 50.185 133.379C51.7835 138.047 52.5827 143.798 52.5827 150.632ZM46.7953 149.716C46.7953 145.492 46.3268 141.881 45.3898 138.88C44.3976 135.879 42.7717 133.601 40.5118 132.045C38.1969 130.434 35.0827 129.628 31.1693 129.628C27.4764 129.628 24.5827 130.351 22.4882 131.795C20.3386 133.24 18.7953 135.407 17.8583 138.297C16.9213 141.186 16.4528 144.798 16.4528 149.132C16.4528 153.355 16.9213 156.939 17.8583 159.884C18.7953 162.829 20.3661 165.08 22.5709 166.636C24.7756 168.136 27.8346 168.886 31.748 168.886C35.3307 168.886 38.2244 168.192 40.4291 166.802C42.5787 165.413 44.1772 163.302 45.2244 160.468C46.2165 157.634 46.7402 154.05 46.7953 149.716Z" fill="#1E1E1E"/>
<path d="M61.3465 113.864H56.2205L54.1535 105.946L56.2205 107.363H8.6811L10.8307 105.612L8.84646 113.864H3.72047L3.30709 90.6091H8.43307L10.8307 98.6941L8.59843 97.1104H44.563L43.9843 98.7774L11.0787 69.188L13.5591 70.1882H8.6811L10.8307 68.5212L8.84646 76.6062H3.72047L3.30709 53.4348H8.43307L10.8307 61.3531L8.59843 59.9361H56.2205L54.1535 61.3531L56.2205 53.4348H61.3465V76.6062H56.2205L54.1535 68.7713L56.2205 70.1882H19.7598L20.6693 68.5212L53.4095 97.9439L51.1772 97.1104H56.2205L54.1535 98.444L56.2205 90.6091H61.3465V113.864Z" fill="#1E1E1E"/>
<path d="M61.3465 0L61.3465 24.0883H56.2205L54.1535 15.2531L56.2205 16.6701H36.7087L38.1969 14.9197V20.7542C38.1417 22.3101 38.252 23.6715 38.5276 24.8384C38.8032 26.0053 39.4646 27.0611 40.5118 28.0057C41.5039 28.9504 43.1575 29.9506 45.4724 31.0063L61.3465 38.0078V50.3436H56.2205L53.9055 43.0922L55.7244 45.426L43.2402 39.7581C41.2008 38.8691 39.6299 37.8133 38.5276 36.5908C37.3701 35.3128 36.5709 33.7569 36.1299 31.9232C35.689 30.0895 35.4961 27.8391 35.5512 25.1718L37.2047 25.5052C36.9843 30.0061 36.185 33.6735 34.8071 36.5075C33.4291 39.2858 31.5551 41.314 29.185 42.5921C26.7598 43.8701 23.9213 44.5091 20.6693 44.5091C14.8819 44.5091 10.5551 42.7588 7.68898 39.2581C4.76772 35.7573 3.30709 30.7285 3.30709 24.1716L3.30709 0H8.43307L10.5 8.33502L8.51575 6.41797H56.2205L54.1535 7.8349L56.2205 0H61.3465ZM33.1535 16.6701H9.01181L10.5827 14.9197V23.5881C10.5827 27.1444 11.437 29.7839 13.1457 31.5065C14.7992 33.1735 17.252 34.007 20.5039 34.007C24.0315 34.007 26.7598 33.0068 28.689 31.0063C30.6181 29.0059 31.5827 25.783 31.5827 21.3377V14.9197L33.1535 16.6701Z" fill="#1E1E1E"/>
</svg>
