<svg width="67" height="591" viewBox="0 0 67 591" fill="none" xmlns="http://www.w3.org/2000/svg">
<foreignObject x="-24" y="-24" width="115" height="639"><div xmlns="http://www.w3.org/1999/xhtml" style="backdrop-filter:blur(12px);clip-path:url(#bgblur_0_218_811_clip_path);height:100%;width:100%"></div></foreignObject><g data-figma-bg-blur-radius="24" style="mix-blend-mode:soft-light">
<path d="M48.5918 545.729L46.7286 548.265L48.5172 541.702H53.1379V561.988H48.5172L46.7286 556.021L48.2937 556.245L27.9477 569.744L29.7364 567.209V577.501L27.8732 576.009H48.5172L46.505 577.202L48.5172 570.416H53.1379V591H48.5172L46.7286 584.139L48.5172 585.183H5.58955L7.3782 584.139L5.81313 591H1.19244L0.819802 570.416H5.36596L7.3782 577.202L5.44049 576.009H24.594L23.1034 577.501V566.686L24.5195 569.148L5.7386 557.886L7.15462 557.14L5.81313 563.703H1.19244L0.819802 544.237H5.44049L7.3782 551.099L5.81313 549.011L27.1279 562.212H24.743L48.5918 545.729Z" fill="white" fill-opacity="0.6"/>
<path d="M53.9577 517.762C53.9577 522.336 52.964 526.338 50.9766 529.769C48.9892 533.2 46.033 535.885 42.1079 537.824C38.1828 539.713 33.3385 540.658 27.5751 540.658C23.0041 540.658 19.0044 540.061 15.5762 538.868C12.0983 537.675 9.21654 535.984 6.93104 533.797C4.59585 531.609 2.85688 529.048 1.71413 526.115C0.571376 523.131 0 519.85 0 516.27C0 512.789 0.571376 509.632 1.71413 506.798C2.80719 503.914 4.44679 501.453 6.63293 499.415C8.81906 497.326 11.5269 495.71 14.7564 494.567C17.9859 493.373 21.7371 492.777 26.01 492.777C31.8728 492.777 36.891 493.846 41.0645 495.984C45.1884 498.072 48.3682 500.981 50.604 504.71C52.8398 508.439 53.9577 512.789 53.9577 517.762ZM46.8776 517.09C46.8776 514.405 46.2069 511.994 44.8654 509.856C43.5239 507.668 41.3626 505.928 38.3815 504.635C35.4004 503.293 31.4257 502.622 26.4572 502.622C21.8365 502.622 18.1101 503.243 15.2781 504.486C12.3964 505.679 10.3096 507.32 9.0178 509.408C7.72599 511.497 7.08009 513.933 7.08009 516.717C7.08009 519.353 7.72599 521.764 9.0178 523.952C10.3096 526.09 12.4461 527.78 15.4271 529.023C18.3585 530.217 22.3085 530.813 27.277 530.813C31.8977 530.813 35.6489 530.242 38.5306 529.098C41.4123 527.954 43.5239 526.363 44.8654 524.325C46.2069 522.236 46.8776 519.825 46.8776 517.09Z" fill="white" fill-opacity="0.6"/>
<path d="M5.44049 426.748L7.60178 433.833L5.21691 432.565H48.5172L46.6541 433.833L48.5172 426.748H53.1379V446.81H48.5172L46.5795 439.427L48.5172 440.993H10.6574L10.7319 439.65L39.4994 454.343L39.8721 460.235L10.5829 474.405V473.063H48.5172L46.7286 474.182L48.5172 467.245H53.1379V486.338H48.5172L46.6541 479.178L48.5172 480.521H5.21691L7.52725 479.178L5.81313 486.338H1.19244L0.819802 469.259L30.7798 455.685V456.804L1.19244 442.634L0.819802 426.748H5.44049Z" fill="white" fill-opacity="0.6"/>
<path d="M53.1379 420.788H48.5172L46.6541 413.703L48.5172 414.971H5.66407L7.60178 413.405L5.81313 420.788H1.19244L0.819802 405.797L0.819802 368.879H5.44049L7.60178 376.039L5.58955 374.697H48.5172L46.6541 376.039L48.5172 368.879H53.1379V389.688H48.5172L46.6541 382.602L48.5172 383.87H5.29144L7.45273 382.379L7.45273 407.214L5.29144 405.797H48.5172L46.6541 406.991L48.5172 399.98H53.1379L53.1379 420.788Z" fill="white" fill-opacity="0.6"/>
<path d="M39.723 329.771V324.327L53.1379 324.401V362.886H48.5172L46.6541 355.8L48.5172 357.068H5.66407L7.52725 355.8L5.81313 362.886H1.19244L0.819802 348.044L0.819802 325.222H13.713V330.741L6.11124 332.158L7.45273 330.368L7.45273 349.386L5.96218 347.895H24.743L23.2525 349.386V330.965H29.6618V349.386L28.0222 347.895H47.9955L46.505 349.386V329.473L47.9955 331.263L39.723 329.771Z" fill="white" fill-opacity="0.6"/>
<path d="M53.1379 311.855H48.5172L46.5795 303.428L48.8899 305.143H5.96218L7.45273 303.279L7.45273 316.181L5.66407 314.093L15.129 315.883V321.402H0.819802L0.819802 279.711H15.129V285.23L5.96218 286.945L7.45273 284.932L7.45273 297.834L5.96218 295.97H48.8899L46.5795 297.61L48.5172 289.257H53.1379L53.1379 311.855Z" fill="white" fill-opacity="0.6"/>
<path d="M39.723 243.391V237.946L53.1379 238.021V276.505H48.5172L46.6541 269.42L48.5172 270.688H5.66407L7.52725 269.42L5.81313 276.505H1.19244L0.819802 261.663L0.819802 238.841H13.713V244.36L6.11124 245.777L7.45273 243.987L7.45273 263.006L5.96218 261.514H24.743L23.2525 263.006V244.584H29.6618V263.006L28.0222 261.514H47.9955L46.505 263.006V243.093L47.9955 244.882L39.723 243.391Z" fill="white" fill-opacity="0.6"/>
<path d="M53.1379 230.766H48.5172L46.6541 223.68L48.5172 224.948H5.66407L7.60178 223.382L5.81313 230.766H1.19244L0.819802 209.957H5.44049L7.60178 217.192L5.58955 215.775H24.6685L23.178 217.266L23.178 191.312L24.6685 192.729H5.66407L7.60178 191.312L5.81313 198.546H1.19244L0.819802 177.813H5.44049L7.60178 184.898L5.58955 183.63H48.5172L46.6541 184.898L48.5172 177.813H53.1379L53.1379 198.546H48.5172L46.6541 191.536L48.5172 192.729H28.3204L29.8109 191.312L29.8109 217.266L28.3204 215.775H48.5172L46.6541 216.968L48.5172 209.957H53.1379V230.766Z" fill="white" fill-opacity="0.6"/>
<path d="M67 123.813L52.3181 127.094L53.1379 126.05V171.843H48.5172L46.6541 164.758L48.5172 166.026H5.66407L7.60178 164.46L5.81313 171.843H1.19244L0.819802 151.035H5.44049L7.60178 158.27L5.58955 156.852H48.8153L46.505 158.046V133.508L48.8153 135.298H5.66407L7.60178 133.807L5.81313 141.041H1.19244L0.819802 120.308H5.44049L7.60178 127.393L5.58955 126.125H48.9644L46.5795 127.393L46.9522 118.368L67 118.294V123.813Z" fill="white" fill-opacity="0.6"/>
<path d="M53.1379 114.086H48.5172L46.6541 107.001L48.5172 108.269H5.66407L7.60178 106.703L5.81313 114.086H1.19244L0.819802 93.2781H5.44049L7.60178 100.513L5.58955 99.0955H38.0089L37.4872 100.587L7.82536 74.1107L10.0612 75.0057H5.66407L7.60178 73.514L5.81313 80.7484H1.19244L0.819802 60.0148H5.44049L7.60178 67.1L5.58955 65.8322H48.5172L46.6541 67.1L48.5172 60.0148H53.1379L53.1379 80.7484H48.5172L46.6541 73.7377L48.5172 75.0057H15.6507L16.4705 73.514L45.9833 99.8413L43.9711 99.0955H48.5172L46.6541 100.289L48.5172 93.2781H53.1379V114.086Z" fill="white" fill-opacity="0.6"/>
<path d="M53.1379 54.0716H48.5172L46.6541 46.9863L48.5172 48.2542H5.66407L7.60178 46.688L5.81313 54.0716H1.19244L0.819802 33.2633H5.44049L7.60178 40.4977L5.58955 39.0807H38.0089L37.4872 40.5723L7.82536 14.0959L10.0612 14.9909H5.66407L7.60178 13.4992L5.81313 20.7336H1.19244L0.819802 0H5.44049L7.60178 7.08521L5.58955 5.81732H48.5172L46.6541 7.08521L48.5172 0H53.1379V20.7336H48.5172L46.6541 13.723L48.5172 14.9909H15.6507L16.4705 13.4992L45.9833 39.8265L43.9711 39.0807H48.5172L46.6541 40.274L48.5172 33.2633H53.1379V54.0716Z" fill="white" fill-opacity="0.6"/>
</g>
<defs>
<clipPath id="bgblur_0_218_811_clip_path" transform="translate(24 24)"><path d="M48.5918 545.729L46.7286 548.265L48.5172 541.702H53.1379V561.988H48.5172L46.7286 556.021L48.2937 556.245L27.9477 569.744L29.7364 567.209V577.501L27.8732 576.009H48.5172L46.505 577.202L48.5172 570.416H53.1379V591H48.5172L46.7286 584.139L48.5172 585.183H5.58955L7.3782 584.139L5.81313 591H1.19244L0.819802 570.416H5.36596L7.3782 577.202L5.44049 576.009H24.594L23.1034 577.501V566.686L24.5195 569.148L5.7386 557.886L7.15462 557.14L5.81313 563.703H1.19244L0.819802 544.237H5.44049L7.3782 551.099L5.81313 549.011L27.1279 562.212H24.743L48.5918 545.729Z"/>
<path d="M53.9577 517.762C53.9577 522.336 52.964 526.338 50.9766 529.769C48.9892 533.2 46.033 535.885 42.1079 537.824C38.1828 539.713 33.3385 540.658 27.5751 540.658C23.0041 540.658 19.0044 540.061 15.5762 538.868C12.0983 537.675 9.21654 535.984 6.93104 533.797C4.59585 531.609 2.85688 529.048 1.71413 526.115C0.571376 523.131 0 519.85 0 516.27C0 512.789 0.571376 509.632 1.71413 506.798C2.80719 503.914 4.44679 501.453 6.63293 499.415C8.81906 497.326 11.5269 495.71 14.7564 494.567C17.9859 493.373 21.7371 492.777 26.01 492.777C31.8728 492.777 36.891 493.846 41.0645 495.984C45.1884 498.072 48.3682 500.981 50.604 504.71C52.8398 508.439 53.9577 512.789 53.9577 517.762ZM46.8776 517.09C46.8776 514.405 46.2069 511.994 44.8654 509.856C43.5239 507.668 41.3626 505.928 38.3815 504.635C35.4004 503.293 31.4257 502.622 26.4572 502.622C21.8365 502.622 18.1101 503.243 15.2781 504.486C12.3964 505.679 10.3096 507.32 9.0178 509.408C7.72599 511.497 7.08009 513.933 7.08009 516.717C7.08009 519.353 7.72599 521.764 9.0178 523.952C10.3096 526.09 12.4461 527.78 15.4271 529.023C18.3585 530.217 22.3085 530.813 27.277 530.813C31.8977 530.813 35.6489 530.242 38.5306 529.098C41.4123 527.954 43.5239 526.363 44.8654 524.325C46.2069 522.236 46.8776 519.825 46.8776 517.09Z"/>
<path d="M5.44049 426.748L7.60178 433.833L5.21691 432.565H48.5172L46.6541 433.833L48.5172 426.748H53.1379V446.81H48.5172L46.5795 439.427L48.5172 440.993H10.6574L10.7319 439.65L39.4994 454.343L39.8721 460.235L10.5829 474.405V473.063H48.5172L46.7286 474.182L48.5172 467.245H53.1379V486.338H48.5172L46.6541 479.178L48.5172 480.521H5.21691L7.52725 479.178L5.81313 486.338H1.19244L0.819802 469.259L30.7798 455.685V456.804L1.19244 442.634L0.819802 426.748H5.44049Z"/>
<path d="M53.1379 420.788H48.5172L46.6541 413.703L48.5172 414.971H5.66407L7.60178 413.405L5.81313 420.788H1.19244L0.819802 405.797L0.819802 368.879H5.44049L7.60178 376.039L5.58955 374.697H48.5172L46.6541 376.039L48.5172 368.879H53.1379V389.688H48.5172L46.6541 382.602L48.5172 383.87H5.29144L7.45273 382.379L7.45273 407.214L5.29144 405.797H48.5172L46.6541 406.991L48.5172 399.98H53.1379L53.1379 420.788Z"/>
<path d="M39.723 329.771V324.327L53.1379 324.401V362.886H48.5172L46.6541 355.8L48.5172 357.068H5.66407L7.52725 355.8L5.81313 362.886H1.19244L0.819802 348.044L0.819802 325.222H13.713V330.741L6.11124 332.158L7.45273 330.368L7.45273 349.386L5.96218 347.895H24.743L23.2525 349.386V330.965H29.6618V349.386L28.0222 347.895H47.9955L46.505 349.386V329.473L47.9955 331.263L39.723 329.771Z"/>
<path d="M53.1379 311.855H48.5172L46.5795 303.428L48.8899 305.143H5.96218L7.45273 303.279L7.45273 316.181L5.66407 314.093L15.129 315.883V321.402H0.819802L0.819802 279.711H15.129V285.23L5.96218 286.945L7.45273 284.932L7.45273 297.834L5.96218 295.97H48.8899L46.5795 297.61L48.5172 289.257H53.1379L53.1379 311.855Z"/>
<path d="M39.723 243.391V237.946L53.1379 238.021V276.505H48.5172L46.6541 269.42L48.5172 270.688H5.66407L7.52725 269.42L5.81313 276.505H1.19244L0.819802 261.663L0.819802 238.841H13.713V244.36L6.11124 245.777L7.45273 243.987L7.45273 263.006L5.96218 261.514H24.743L23.2525 263.006V244.584H29.6618V263.006L28.0222 261.514H47.9955L46.505 263.006V243.093L47.9955 244.882L39.723 243.391Z"/>
<path d="M53.1379 230.766H48.5172L46.6541 223.68L48.5172 224.948H5.66407L7.60178 223.382L5.81313 230.766H1.19244L0.819802 209.957H5.44049L7.60178 217.192L5.58955 215.775H24.6685L23.178 217.266L23.178 191.312L24.6685 192.729H5.66407L7.60178 191.312L5.81313 198.546H1.19244L0.819802 177.813H5.44049L7.60178 184.898L5.58955 183.63H48.5172L46.6541 184.898L48.5172 177.813H53.1379L53.1379 198.546H48.5172L46.6541 191.536L48.5172 192.729H28.3204L29.8109 191.312L29.8109 217.266L28.3204 215.775H48.5172L46.6541 216.968L48.5172 209.957H53.1379V230.766Z"/>
<path d="M67 123.813L52.3181 127.094L53.1379 126.05V171.843H48.5172L46.6541 164.758L48.5172 166.026H5.66407L7.60178 164.46L5.81313 171.843H1.19244L0.819802 151.035H5.44049L7.60178 158.27L5.58955 156.852H48.8153L46.505 158.046V133.508L48.8153 135.298H5.66407L7.60178 133.807L5.81313 141.041H1.19244L0.819802 120.308H5.44049L7.60178 127.393L5.58955 126.125H48.9644L46.5795 127.393L46.9522 118.368L67 118.294V123.813Z"/>
<path d="M53.1379 114.086H48.5172L46.6541 107.001L48.5172 108.269H5.66407L7.60178 106.703L5.81313 114.086H1.19244L0.819802 93.2781H5.44049L7.60178 100.513L5.58955 99.0955H38.0089L37.4872 100.587L7.82536 74.1107L10.0612 75.0057H5.66407L7.60178 73.514L5.81313 80.7484H1.19244L0.819802 60.0148H5.44049L7.60178 67.1L5.58955 65.8322H48.5172L46.6541 67.1L48.5172 60.0148H53.1379L53.1379 80.7484H48.5172L46.6541 73.7377L48.5172 75.0057H15.6507L16.4705 73.514L45.9833 99.8413L43.9711 99.0955H48.5172L46.6541 100.289L48.5172 93.2781H53.1379V114.086Z"/>
<path d="M53.1379 54.0716H48.5172L46.6541 46.9863L48.5172 48.2542H5.66407L7.60178 46.688L5.81313 54.0716H1.19244L0.819802 33.2633H5.44049L7.60178 40.4977L5.58955 39.0807H38.0089L37.4872 40.5723L7.82536 14.0959L10.0612 14.9909H5.66407L7.60178 13.4992L5.81313 20.7336H1.19244L0.819802 0H5.44049L7.60178 7.08521L5.58955 5.81732H48.5172L46.6541 7.08521L48.5172 0H53.1379V20.7336H48.5172L46.6541 13.723L48.5172 14.9909H15.6507L16.4705 13.4992L45.9833 39.8265L43.9711 39.0807H48.5172L46.6541 40.274L48.5172 33.2633H53.1379V54.0716Z"/>
</clipPath></defs>
</svg>
