<svg viewBox="0 0 36 36" xmlns="http://www.w3.org/2000/svg"><path d="M8.767 8.041a.951.951 0 0 0-.741.952c0 .159.033.354.073.433.041.079 1.967 2.041 4.282 4.359L16.59 18l-4.209 4.215c-2.315 2.318-4.241 4.28-4.282 4.359-.156.309-.076.821.174 1.107.239.274.826.386 1.153.22.079-.041 2.041-1.967 4.359-4.282L18 19.41l4.215 4.209c2.318 2.315 4.28 4.241 4.359 4.282.327.166.914.054 1.153-.22.25-.286.33-.798.174-1.107-.041-.079-1.967-2.041-4.282-4.359L19.41 18l4.209-4.215c2.315-2.318 4.241-4.28 4.282-4.359.166-.327.054-.914-.22-1.153-.286-.25-.798-.33-1.107-.174-.079.041-2.041 1.967-4.359 4.282L18 16.589l-4.245-4.241c-3.185-3.182-4.29-4.251-4.425-4.28a17.61 17.61 0 0 0-.27-.057.995.995 0 0 0-.293.03" fill-rule="evenodd" fill="currentColor"/></svg>