<svg viewBox="0 0 168 183" xmlns="http://www.w3.org/2000/svg">
<path d="M168 13.4449C168 20.8703 161.983 26.8898 154.56 26.8898C147.137 26.8898 141.12 20.8703 141.12 13.4449C141.12 6.01949 147.137 0 154.56 0C161.983 0 168 6.01949 168 13.4449Z" fill="currentColor"/>
<path d="M126.485 155.022L154.848 165.986V175.438L110.387 181.11H102.721V157.668H100.805C95.6941 164.474 88.9227 170.397 80.4903 175.438C72.3136 180.479 62.3481 183 50.5939 183C36.029 183 23.8916 179.093 14.1816 171.279C4.72721 163.214 0 152.375 0 138.764C0 113.054 18.0145 94.7799 54.0435 83.9415L103.488 68.818V55.585C103.488 43.4862 100.805 34.1601 95.4386 27.6066C90.0725 20.8011 82.279 17.3983 72.058 17.3983C61.0705 17.3983 51.8716 21.3052 44.4613 29.119C37.3066 36.9327 30.2797 49.1575 23.3805 65.7933H11.8819V16.6421C18.5256 12.1051 27.0856 8.45026 37.5622 5.67763C48.2942 2.90499 59.0263 1.51868 69.7583 1.51868C107.576 1.51868 126.485 19.5408 126.485 55.585V155.022ZM57.4931 163.34C66.4365 163.34 74.8688 160.567 82.7901 155.022C90.9669 149.224 97.8661 140.906 103.488 130.068V85.4538L57.8764 99.443C37.4344 105.492 27.2134 116.961 27.2134 133.849C27.2134 142.923 29.8964 150.107 35.2624 155.4C40.884 160.693 48.2942 163.34 57.4931 163.34Z" fill="currentColor"/>
</svg>
