<svg width="64" height="341" viewBox="0 0 64 341" fill="none" xmlns="http://www.w3.org/2000/svg">
<path d="M62.1639 332.902L53.7705 330.9C54.1785 329.216 54.5282 327.736 54.8197 326.459C55.0528 325.182 55.1694 324.079 55.1694 323.15C55.1694 320.828 54.4117 319 52.8962 317.665C51.3807 316.271 49.224 314.907 46.4262 313.572L50.9727 314.617L6.90711 335.689L8.8306 333.163L6.81967 341H1.39891L0.961752 316.358H6.38251L8.65574 325.24L6.03279 323.934L40.2186 309.393L40.8306 310.873L6.55738 297.115L8.74317 296.245L6.81967 304.691H1.39891L0.961752 282.052H6.38251L8.56831 289.888L6.64481 287.363L46.776 304.342C50.5064 305.91 53.6539 307.622 56.2186 309.48C58.7832 311.337 60.7359 313.427 62.0765 315.749C63.3588 318.013 64 320.625 64 323.585C64 324.979 63.8251 326.459 63.4754 328.026C63.184 329.593 62.7468 331.219 62.1639 332.902Z" fill="white" fill-opacity="0.6"/>
<path d="M63.3005 255.785C63.3005 260.486 62.1348 264.811 59.8033 268.758C57.4135 272.648 53.8871 275.753 49.224 278.075C44.561 280.397 38.8197 281.558 32 281.558C25.2969 281.558 19.5556 280.426 14.776 278.162C9.99636 275.84 6.35337 272.59 3.847 268.41C1.28233 264.231 0 259.354 0 253.782C0 250.763 0.378871 247.687 1.13661 244.552C1.83607 241.359 2.94354 237.993 4.45902 234.452L19.5847 235.148V241.505L9.0929 243.42L10.929 241.592C10.0546 243.739 9.41348 245.829 9.00547 247.861C8.53916 249.835 8.30601 251.692 8.30601 253.434C8.30601 256.975 9.20947 259.993 11.0164 262.489C12.765 264.927 15.3297 266.814 18.7104 268.149C22.0328 269.426 25.9964 270.064 30.6011 270.064C35.9053 270.064 40.3352 269.339 43.8907 267.888C47.4463 266.436 50.1275 264.434 51.9344 261.88C53.6831 259.267 54.5574 256.336 54.5574 253.085C54.5574 250.705 54.0619 248.18 53.071 245.51C52.0219 242.84 50.4189 240.199 48.2623 237.586L54.5574 233.581C57.4718 237.122 59.6576 240.808 61.1148 244.639C62.572 248.412 63.3005 252.127 63.3005 255.785Z" fill="white" fill-opacity="0.6"/>
<path d="M63.4754 224.677C63.4754 226.651 63.0965 229.002 62.3388 231.73L52.3716 230.076C52.663 228.915 52.8087 227.87 52.8087 226.941C52.8087 224.851 52.1384 223.081 50.7978 221.63C49.4572 220.178 47.592 219.017 45.2022 218.147C42.8124 217.218 40.102 216.492 37.071 215.97C34.0401 215.447 30.8051 215.07 27.3661 214.838C23.9271 214.606 20.4882 214.432 17.0492 214.316C13.6102 214.141 10.2878 214.025 7.08197 213.967L8.91804 212.4L6.81967 220.759H1.39891L0.961752 205.957L0.961752 172.782H6.38251L8.91804 181.054L6.55738 179.574H56.918L54.7322 181.054L56.918 172.782H62.3388V198.12H56.918L54.7322 188.803L56.918 190.283H6.20765L8.74317 188.542V207.611L6.73224 205.521C11.2204 205.811 15.7377 206.073 20.2842 206.305C24.7723 206.479 29.1439 206.769 33.3989 207.176C37.5956 207.582 41.5301 208.162 45.2022 208.917C48.816 209.614 51.9927 210.629 54.7322 211.965C57.4718 213.242 59.6284 214.925 61.2022 217.015C62.7177 219.046 63.4754 221.601 63.4754 224.677Z" fill="white" fill-opacity="0.6"/>
<path d="M62.1639 162.584L53.7705 160.581C54.1785 158.897 54.5282 157.417 54.8197 156.14C55.0528 154.863 55.1694 153.76 55.1694 152.831C55.1694 150.509 54.4117 148.681 52.8962 147.346C51.3807 145.953 49.224 144.589 46.4262 143.253L50.9727 144.298L6.90711 165.37L8.8306 162.845L6.81967 170.681H1.39891L0.961752 146.04H6.38251L8.65574 154.921L6.03279 153.615L40.2186 139.074L40.8306 140.554L6.55738 126.797L8.74317 125.926L6.81967 134.372H1.39891L0.961752 111.733H6.38251L8.56831 119.57L6.64481 117.045L46.776 134.024C50.5064 135.591 53.6539 137.303 56.2186 139.161C58.7832 141.019 60.7359 143.108 62.0765 145.43C63.3588 147.694 64 150.306 64 153.267C64 154.66 63.8251 156.14 63.4754 157.707C63.184 159.275 62.7468 160.9 62.1639 162.584Z" fill="white" fill-opacity="0.6"/>
<path d="M62.3388 109.64H56.918L54.8197 101.629L56.3934 102.848H6.64481L8.91804 101.281L6.81967 109.64H1.39891L0.961752 92.3126L0.961752 66.3649H18.0984V72.7212L7.51913 74.7239L8.74317 72.373V93.8799L6.99454 92.1384H56.3934L54.8197 93.5316L56.918 83.8665H62.3388V109.64Z" fill="white" fill-opacity="0.6"/>
<path d="M62.3388 63.1276H56.918L54.7322 54.8557L56.918 56.336H6.64481L8.91804 54.5074L6.81967 63.1276H1.39891L0.961752 38.8344H6.38251L8.91804 47.2804L6.55738 45.626H44.5902L43.9781 47.3675L9.18033 16.4567L11.8033 17.5016H6.64481L8.91804 15.7601L6.81967 24.2061H1.39891L0.961752 0H6.38251L8.91804 8.27188L6.55738 6.79163H56.918L54.7322 8.27188L56.918 0H62.3388V24.2061H56.918L54.7322 16.0213L56.918 17.5016H18.3607L19.3224 15.7601L53.9454 46.4967L51.5847 45.626H56.918L54.7322 47.0192L56.918 38.8344H62.3388L62.3388 63.1276Z" fill="white" fill-opacity="0.6"/>
</svg>
