<svg width="68" height="385" viewBox="0 0 68 385" fill="none" xmlns="http://www.w3.org/2000/svg">
<path d="M49.317 339.148L47.426 341.716L49.2414 335.069H53.931V355.615H49.2414L47.426 349.572L49.0145 349.799L28.3648 363.471L30.1802 360.903V371.327L28.2892 369.817H49.2414L47.1991 371.025L49.2414 364.151H53.931V385H49.2414L47.426 378.05L49.2414 379.108H5.67297L7.48832 378.05L5.89989 385H1.21024L0.832038 364.151H5.44605L7.48832 371.025L5.52169 369.817H24.9611L23.4483 371.327V360.374L24.8854 362.867L5.82425 351.461L7.2614 350.705L5.89989 357.353H1.21024L0.832038 337.637H5.52169L7.48832 344.587L5.89989 342.472L27.5328 355.842H25.1123L49.317 339.148Z" fill="white" fill-opacity="0.6"/>
<path d="M54.7631 310.821C54.7631 315.454 53.7545 319.508 51.7375 322.983C49.7204 326.458 46.7201 329.177 42.7364 331.141C38.7527 333.055 33.8361 334.012 27.9867 334.012C23.3474 334.012 19.2881 333.408 15.8087 332.199C12.2788 330.99 9.3541 329.278 7.03449 327.062C4.66444 324.846 2.89952 322.253 1.73971 319.282C0.579904 316.26 0 312.936 0 309.311C0 305.785 0.579904 302.588 1.73971 299.717C2.84909 296.796 4.51316 294.304 6.73193 292.239C8.95069 290.124 11.6989 288.487 14.9766 287.329C18.2544 286.12 22.0616 285.516 26.3982 285.516C32.3485 285.516 37.4416 286.599 41.6774 288.764C45.8628 290.879 49.0901 293.825 51.3593 297.602C53.6285 301.379 54.7631 305.785 54.7631 310.821ZM47.5773 310.142C47.5773 307.422 46.8965 304.98 45.535 302.814C44.1735 300.598 41.98 298.836 38.9544 297.527C35.9288 296.167 31.8947 295.487 26.8521 295.487C22.1624 295.487 18.3804 296.116 15.5061 297.375C12.5814 298.584 10.4635 300.246 9.15239 302.361C7.84131 304.476 7.18576 306.944 7.18576 309.764C7.18576 312.433 7.84131 314.875 9.15239 317.091C10.4635 319.257 12.6318 320.969 15.6574 322.228C18.6326 323.436 22.6415 324.041 27.6841 324.041C32.3737 324.041 36.1809 323.462 39.1057 322.303C42.0304 321.145 44.1735 319.534 45.535 317.469C46.8965 315.354 47.5773 312.911 47.5773 310.142Z" fill="white" fill-opacity="0.6"/>
<path d="M5.52169 218.639L7.71524 225.815L5.29478 224.531H49.2414L47.3504 225.815L49.2414 218.639H53.931V238.959H49.2414L47.2747 231.481L49.2414 233.067H10.8165L10.8921 231.707L40.089 246.589L40.4672 252.556L10.7408 266.908V265.549H49.2414L47.426 266.682L49.2414 259.657H53.931V278.995H49.2414L47.3504 271.743L49.2414 273.103H5.29478L7.6396 271.743L5.89989 278.995H1.21024L0.832038 261.696L31.2392 247.948V249.081L1.21024 234.729L0.832038 218.639H5.52169Z" fill="white" fill-opacity="0.6"/>
<path d="M49.4683 168.144L47.2747 170.636L49.2414 163.914H53.931V184.913H49.2414L47.426 177.888L48.7875 178.795L38.198 182.194L39.4082 180.683V201.683L38.2736 200.474L48.6363 204.1L47.6529 204.402L49.2414 197.831H53.931L53.931 217.168H49.2414L47.3504 210.672L49.2414 212.787L0.983316 194.733L0.680757 185.291L49.4683 168.144ZM34.1891 199.266L32.9032 199.946V182.27L34.416 183.176L5.89989 191.712L5.97553 189.597L34.1891 199.266Z" fill="white" fill-opacity="0.6"/>
<path d="M53.931 162.367H49.2414L47.3504 155.191L49.2414 156.475H5.74861L7.71524 154.888L5.89989 162.367H1.21024L0.832038 141.291H5.52169L7.71524 148.619L5.67297 147.183H25.0367L23.5239 148.694L23.5239 122.407L25.0367 123.842H5.74861L7.71524 122.407L5.89989 129.734H1.21024L0.832038 108.734H5.52169L7.71524 115.91L5.67297 114.626H49.2414L47.3504 115.91L49.2414 108.734H53.931V129.734H49.2414L47.3504 122.633L49.2414 123.842H28.743L30.2558 122.407L30.2558 148.694L28.743 147.183H49.2414L47.3504 148.392L49.2414 141.291H53.931V162.367Z" fill="white" fill-opacity="0.6"/>
<path d="M49.6196 95.4959H47.1991L47.1991 70.2659L49.5439 72.0789H5.37041L7.56396 70.5681L7.56396 87.0356L5.74861 85.7514C11.0434 85.7514 15.7583 85.8521 19.8932 86.0536C24.0282 86.2047 27.7093 86.5068 30.9366 86.9601C34.1135 87.4133 36.9121 88.0176 39.3326 88.773C41.7026 89.478 43.7197 90.3845 45.3838 91.4924C47.0478 92.6003 48.4598 93.9348 49.6196 95.4959ZM48.5606 101.69C47.0983 100.381 45.5602 99.2477 43.9466 98.2909C42.2825 97.2837 40.3915 96.4528 38.2736 95.7981C36.1557 95.0931 33.6344 94.5391 30.7097 94.1362C27.7849 93.7334 24.3307 93.4312 20.3471 93.2298C16.3129 93.0283 11.5729 92.9276 6.12681 92.9276L7.71524 91.1902L5.89989 98.7441H1.21024L0.832038 85.9025L0.832038 56.8955H5.52169L7.71524 64.0717L5.67297 62.7876H49.5439L47.1991 64.2983L47.6529 54.9315L68 54.856V60.4459L53.099 63.543L53.931 62.561L53.931 98.0643L53.099 97.1578L68 100.482V105.996L47.6529 105.769L47.1991 98.9707L48.5606 101.69Z" fill="white" fill-opacity="0.6"/>
<path d="M49.4683 4.23019L47.2747 6.72296L49.2414 0H53.931V20.9998H49.2414L47.426 13.9747L48.7875 14.8812L38.198 18.2804L39.4082 16.7697V37.7695L38.2736 36.5608L48.6363 40.1867L47.6529 40.4889L49.2414 33.917H53.931V53.2549H49.2414L47.3504 46.7586L49.2414 48.8737L0.983316 30.8199L0.680757 21.3775L49.4683 4.23019ZM34.1891 35.3522L32.9032 36.0321V18.356L34.416 19.2624L5.89989 27.7983L5.97553 25.6832L34.1891 35.3522Z" fill="white" fill-opacity="0.6"/>
</svg>
