<svg xmlns="http://www.w3.org/2000/svg" aria-hidden="true" style="width: 0; height: 0; position: absolute;"><symbol id="close" viewBox="0 0 36 36"><path fill="currentColor" fill-rule="evenodd" d="M8.767 8.041a.95.95 0 0 0-.741.952c0 .159.033.354.073.433.041.079 1.967 2.041 4.282 4.359L16.59 18l-4.209 4.215c-2.315 2.318-4.241 4.28-4.282 4.359-.156.309-.076.821.174 1.107.239.274.826.386 1.153.22.079-.041 2.041-1.967 4.359-4.282L18 19.41l4.215 4.209c2.318 2.315 4.28 4.241 4.359 4.282.327.166.914.054 1.153-.22.25-.286.33-.798.174-1.107-.041-.079-1.967-2.041-4.282-4.359L19.41 18l4.209-4.215c2.315-2.318 4.241-4.28 4.282-4.359.166-.327.054-.914-.22-1.153-.286-.25-.798-.33-1.107-.174-.079.041-2.041 1.967-4.359 4.282L18 16.589l-4.245-4.241c-3.185-3.182-4.29-4.251-4.425-4.28l-.27-.057a1 1 0 0 0-.293.03"></path></symbol><symbol id="envelope" viewBox="0 0 24 24"><path fill="currentColor" fill-rule="evenodd" d="M4.5 4.807c-.748.14-1.498.872-1.678 1.637-.053.222-.061.969-.061 5.556 0 5.841-.011 5.562.25 6.056.166.314.619.767.933.933.501.265.009.25 8.056.25s7.555.015 8.056-.25c.314-.166.767-.619.933-.933.261-.494.25-.215.25-6.056s.011-5.562-.25-6.056c-.188-.357-.62-.772-.989-.952a2.5 2.5 0 0 0-.537-.189c-.306-.055-14.669-.052-14.963.004m14.866.491c.368.078.571.192.864.485q.431.431.475.907l.02.21-4.328 2.88c-2.38 1.584-4.359 2.88-4.397 2.88s-2.017-1.296-4.397-2.88L3.275 6.9l.02-.21q.044-.476.475-.907c.287-.288.497-.408.846-.483.373-.082 14.366-.084 14.75-.002M7.6 10.36c2.376 1.584 4.356 2.88 4.4 2.88s2.024-1.296 4.4-2.88a619 619 0 0 1 4.34-2.88c.011 0 .02 2.164.019 4.81 0 5.136 0 5.12-.195 5.503-.232.453-.767.846-1.264.927-.326.054-14.274.054-14.6 0-.497-.081-1.032-.474-1.264-.927-.195-.383-.195-.367-.195-5.503-.001-2.646.008-4.81.019-4.81s1.964 1.296 4.34 2.88"></path></symbol><symbol id="logo-letter" viewBox="0 0 168 183"><path fill="currentColor" d="M168 13.445c0 7.425-6.017 13.445-13.44 13.445s-13.44-6.02-13.44-13.445S147.137 0 154.56 0 168 6.02 168 13.445M126.485 155.022l28.363 10.964v9.452l-44.461 5.672h-7.666v-23.442h-1.916q-7.665 10.209-20.315 17.77Q68.226 183 50.594 183q-21.847 0-36.412-11.721Q0 159.181 0 138.764q0-38.565 54.044-54.823l49.444-15.123V55.585q0-18.148-8.05-27.978-8.048-10.209-23.38-10.209-16.481 0-27.597 11.721Q33.73 40.84 23.381 65.793h-11.5v-49.15q9.967-6.807 25.681-10.965 16.098-4.16 32.196-4.16 56.727 0 56.727 54.067zm-68.992 8.318q13.415 0 25.297-8.318 12.265-8.697 20.698-24.954V85.454L57.876 99.443q-30.663 9.074-30.663 34.406 0 13.611 8.05 21.551 8.432 7.94 22.23 7.94"></path></symbol><symbol id="logo-word" viewBox="0 0 149 34"><path fill="currentColor" d="m13.626 24.45-.445-.606 3.15.605v1.48l-4.793.202-.411-3.229.24.101q-1.507 1.614-3.253 2.455-1.746.807-3.39.807-1.985 0-3.355-1.244T0 21.254q0-1.985.856-3.027.855-1.075 2.362-1.513t3.492-.437h4.485l-.308.336v-3.228q0-1.85-.993-2.623-.993-.808-2.739-.808-.924 0-1.985.202-1.027.168-2.191.572l.41-.437-.342 3.06H1.232L.96 9.181a27 27 0 0 1 3.663-.942q1.712-.336 3.15-.336 2.739 0 4.28 1.21 1.574 1.178 1.574 3.8zM2.773 21.018q0 1.648.788 2.421.82.774 2.054.774 1.198 0 2.636-.707 1.472-.74 2.842-1.984l-.206.707v-4.507l.308.303H7.121q-2.43 0-3.39.74-.957.706-.958 2.253M18.278 25.962v-1.446l3.013-.639-.343.505V9.887l.377.505-3.047-.64V8.308l4.793-.236.377 3.296-.377-.135q1.54-1.58 3.013-2.455a6.2 6.2 0 0 1 3.218-.874q1.095 0 2.294.336l-.206 4.91h-1.712l-.41-3.53.308.604a3.5 3.5 0 0 0-.514-.1 5 5 0 0 0-.547-.034q-1.37 0-2.67.807-1.268.807-2.432 2.085l.274-.807v12.208l-.41-.505 3.731.64v1.445zM39.483 26.265q-1.78 0-2.807-1.076-1.027-1.11-1.027-3.33V9.653l.445.437h-3.526v-1.48l3.56-.504-.48.538v-4.44l2.74-.436v4.876l-.377-.437h5.375l-.103 1.883h-5.272l.377-.437V21.49q0 1.412.547 2.051.582.639 1.61.639.615 0 1.335-.202.719-.201 1.54-.572l.582 1.547q-2.43 1.312-4.519 1.312M53.54 26.265q-2.292 0-4.073-1.009-1.746-1.043-2.74-3.026-.992-1.985-.992-4.843 0-2.925 1.027-5.045 1.027-2.118 2.91-3.262 1.884-1.177 4.417-1.177 2.396 0 3.937 1.009 1.575.975 2.328 2.724.787 1.749.787 4.002 0 .37-.034.74t-.103.908h-13.18v-1.917h10.784l-.308.202q.034-1.514-.377-2.792t-1.404-2.051q-.992-.774-2.636-.774-1.746 0-2.944.909-1.198.907-1.78 2.488t-.582 3.666q0 2.22.65 3.834.65 1.58 1.883 2.455 1.267.874 3.081.874 1.268 0 2.773-.47 1.507-.506 3.116-1.514l.993 1.513q-1.917 1.278-3.835 1.917-1.917.64-3.697.64M72.88 7.903q3.766 0 5.889 2.32 2.157 2.32 2.157 6.558 0 2.859-1.062 5.011-1.026 2.119-2.944 3.296t-4.622 1.177q-3.698 0-5.786-2.253-2.088-2.287-2.088-6.558 0-2.96.993-5.078 1.026-2.153 2.91-3.296 1.917-1.177 4.553-1.177m-.137 1.984q-2.636 0-4.04 1.95Q67.3 13.789 67.3 17.32q0 3.463 1.335 5.212t3.834 1.749q1.815 0 3.047-.874 1.267-.909 1.883-2.556.65-1.648.65-3.935 0-3.43-1.403-5.213-1.37-1.815-3.903-1.816M88.772 24.247l-.308-.37 2.979.64v1.445h-8.114v-1.446l2.978-.639-.273.37V1.984l.273.303-2.978-.605V.234L88.772 0zM102.335 7.903q3.767 0 5.889 2.32 2.157 2.32 2.157 6.558 0 2.859-1.062 5.011-1.026 2.119-2.944 3.296t-4.622 1.177q-3.697 0-5.786-2.253-2.088-2.287-2.088-6.558 0-2.96.993-5.078 1.026-2.153 2.91-3.296 1.917-1.177 4.553-1.177m-.137 1.984q-2.636 0-4.04 1.95-1.403 1.951-1.403 5.483 0 3.463 1.335 5.212t3.834 1.749q1.815 0 3.047-.874 1.268-.909 1.883-2.556.651-1.648.651-3.935 0-3.43-1.404-5.213-1.37-1.815-3.903-1.816M121.001 34q-4.006 0-5.992-1.143t-1.985-3.296q0-1.514 1.027-2.69 1.027-1.178 3.012-2.052l.035.538q-1.096-.067-1.678-.437a1.28 1.28 0 0 1-.582-1.11q0-.27.069-.538a8 8 0 0 1 .239-.74q.206-.504.582-1.311.411-.841 1.027-2.186l.069.47q-1.473-.773-2.26-2.085-.787-1.344-.787-3.16 0-2.926 1.951-4.642 1.986-1.715 5.444-1.715 2.328 0 4.005.807l-.753-.168 5.375-.235.035 1.614-3.184.605.239-.403q.72.672 1.096 1.648t.376 2.22q0 2.958-2.019 4.674-2.02 1.715-5.376 1.715-1.917 0-3.526-.64l.616-.302-.89 4.406-.582-.337h6.71q3.288 0 4.999 1.278 1.712 1.245 1.712 3.599 0 2.724-2.294 4.17-2.26 1.446-6.71 1.446m.239-2.051q3.116 0 4.622-.841 1.507-.84 1.507-2.522 0-1.48-1.13-2.254-1.13-.74-3.39-.74h-5.443l.787-.168q-2.739 1.682-2.739 3.632 0 1.446 1.404 2.153 1.438.74 4.382.74m-.274-13.452q2.191 0 3.424-1.144 1.233-1.177 1.233-3.296t-1.164-3.194-3.321-1.077q-2.191 0-3.39 1.144-1.198 1.11-1.198 3.262 0 2.085 1.13 3.195 1.164 1.11 3.286 1.11M131.266 33.832l.239-1.984q.411.066.753.1.378.034.685.034 1.678 0 2.705-.773 1.061-.741 1.78-2.253.719-1.515 1.472-3.767l-.102 1.009-6.403-16.378.377.303-2.225-.37V8.307l7.497-.236v1.48l-3.081.504.206-.302 5.101 14.293-.616-.135 4.895-14.091.206.303-3.013-.37V8.307L149 8.07v1.48l-2.397.538.48-.303-6.026 16.244a37 37 0 0 1-1.301 3.127 11.8 11.8 0 0 1-1.506 2.523 5.9 5.9 0 0 1-2.089 1.715q-1.232.605-2.978.605-.787 0-1.917-.168"></path></symbol></svg>