<svg xmlns="http://www.w3.org/2000/svg" aria-hidden="true" style="width: 0; height: 0; position: absolute;"><symbol id="arrow-right" viewBox="0 0 36 36"><path fill="currentColor" d="M13.147 9.354a.5.5 0 1 1 .707-.707l9 9a.5.5 0 0 1 0 .707l-9 9a.5.5 0 0 1-.707-.707L21.793 18z"></path></symbol><symbol id="close" viewBox="0 0 36 36"><path fill="currentColor" fill-rule="evenodd" d="M8.767 8.041a.95.95 0 0 0-.741.952c0 .159.033.354.073.433.041.079 1.967 2.041 4.282 4.359L16.59 18l-4.209 4.215c-2.315 2.318-4.241 4.28-4.282 4.359-.156.309-.076.821.174 1.107.239.274.826.386 1.153.22.079-.041 2.041-1.967 4.359-4.282L18 19.41l4.215 4.209c2.318 2.315 4.28 4.241 4.359 4.282.327.166.914.054 1.153-.22.25-.286.33-.798.174-1.107-.041-.079-1.967-2.041-4.282-4.359L19.41 18l4.209-4.215c2.315-2.318 4.241-4.28 4.282-4.359.166-.327.054-.914-.22-1.153-.286-.25-.798-.33-1.107-.174-.079.041-2.041 1.967-4.359 4.282L18 16.589l-4.245-4.241c-3.185-3.182-4.29-4.251-4.425-4.28l-.27-.057a1 1 0 0 0-.293.03"></path></symbol><symbol id="dashed-circle" viewBox="0 0 540 540"><path fill="currentColor" d="M264.111 538.937q2.937.063 5.889.063v1q-2.962-.001-5.91-.065zm11.798.998q-2.946.064-5.909.065v-1q2.952 0 5.889-.063zm-35.209-2.512q5.808.629 11.689 1.01l-.065.997a273 273 0 0 1-11.731-1.014zm58.706.993q-5.83.632-11.731 1.014l-.064-.997q5.88-.381 11.689-1.01zM217.5 533.88a268 268 0 0 0 11.568 2.026l-.151.988a270 270 0 0 1-11.611-2.034zm105.193.98q-5.762 1.14-11.611 2.034l-.15-.988a268 268 0 0 0 11.568-2.026zm-127.998-6.543a267 267 0 0 0 11.341 3.032l-.237.971a267 267 0 0 1-11.384-3.043zm150.888.96a267 267 0 0 1-11.382 3.043l-.237-.971q5.72-1.395 11.341-3.032zm-173.11-8.502a267 267 0 0 0 11.028 4.016l-.321.945a269 269 0 0 1-11.07-4.03zm195.416.931a269 269 0 0 1-11.07 4.03l-.32-.945q5.57-1.891 11.028-4.016zm-216.89-10.393a266 266 0 0 0 10.633 4.967l-.202.456.001.001-.202.456a268 268 0 0 1-10.673-4.985zm238.444.895a268 268 0 0 1-10.672 4.985l-.202-.456-.201-.457a266 266 0 0 0 10.633-4.967zm-259.008-12.2a269 269 0 0 0 10.159 5.878l-.242.437.001.001-.242.437a270 270 0 0 1-10.196-5.9zm279.649.853a270 270 0 0 1-10.196 5.9l-.241-.437-.241-.438a269 269 0 0 0 10.159-5.878zM110.931 486.95a268 268 0 0 0 9.609 6.741l-.279.415.001.001-.279.414a270 270 0 0 1-9.645-6.766zm318.73.805a270 270 0 0 1-9.645 6.766l-.556-.83a268 268 0 0 0 9.61-6.741zM92.635 472.249a271 271 0 0 0 8.988 7.549l-.314.39h.001l-.314.389A271 271 0 0 1 91.975 473zm355.389.751a270 270 0 0 1-9.021 7.577l-.626-.779a271 271 0 0 0 8.988-7.549zm-372.34-16.983a271 271 0 0 0 8.3 8.299l-.692.722a271 271 0 0 1-8.33-8.331zm389.354.69a270 270 0 0 1-8.331 8.33l-.345-.359-.345-.362a271 271 0 0 0 8.299-8.299zm-404.836-18.33a271 271 0 0 0 7.549 8.988l-.376.329-.376.33a270 270 0 0 1-7.577-9.021l.39-.313zm419.986.313.389.313a270 270 0 0 1-7.577 9.021l-.751-.659q3.87-4.41 7.549-8.988zm-433.88-19.23a269 269 0 0 0 6.742 9.61l-.806.591a271 271 0 0 1-6.767-9.645zm447.798.278.415.278a270 270 0 0 1-6.766 9.645l-.805-.592a268 268 0 0 0 6.741-9.609zM34.114 399.406a268 268 0 0 0 5.878 10.159l-.854.519a270 270 0 0 1-5.9-10.196zm472.647.482a270 270 0 0 1-5.9 10.196l-.853-.519a269 269 0 0 0 5.878-10.159zM23.72 378.368a268 268 0 0 0 4.967 10.633l-.896.442a269 269 0 0 1-4.985-10.672zm493.016.201.457.202a268 268 0 0 1-4.985 10.672l-.895-.442a266 266 0 0 0 4.967-10.633zm-501.527-22.07q1.891 5.57 4.016 11.028l-.932.362a268 268 0 0 1-4.03-11.07zm510.527.32a269 269 0 0 1-4.03 11.07l-.931-.362a267 267 0 0 0 4.016-11.028zM8.651 333.964a267 267 0 0 0 3.032 11.341l-.961.279a268 268 0 0 1-3.043-11.383zm523.669.237a267 267 0 0 1-3.043 11.383l-.96-.279a267 267 0 0 0 3.032-11.341zM4.094 310.932q.89 5.827 2.026 11.568l-.981.193a269 269 0 0 1-2.034-11.611zm532.8.15a270 270 0 0 1-2.034 11.611l-.98-.193a269 269 0 0 0 2.026-11.568zM1.567 287.611q.38 5.88 1.01 11.689l-.994.106a272 272 0 0 1-1.014-11.731zm537.863.064a273 273 0 0 1-1.014 11.731l-.993-.106q.629-5.809 1.01-11.689zM0 270q0-2.962.064-5.91l1 .021a274 274 0 0 0 0 11.778l-1 .02A275 275 0 0 1 0 270m540 0q-.001 2.963-.065 5.909l-.998-.02a275 275 0 0 0 0-11.778l.998-.021q.064 2.947.065 5.91M1.583 240.593l.994.107a271 271 0 0 0-1.01 11.689l-.998-.065q.379-5.85 1.003-11.631zm536.833 0q.632 5.83 1.014 11.731l-.997.065q-.381-5.88-1.01-11.689zM5.14 217.307l.98.193a268 268 0 0 0-2.026 11.568l-.989-.151Q4 223.069 5.14 217.306zm529.72-.001a270 270 0 0 1 2.034 11.611l-.988.151a269 269 0 0 0-2.026-11.568zm-524.137-22.89.96.279a267 267 0 0 0-3.032 11.341l-.971-.237-.001-.001a268 268 0 0 1 3.043-11.383zm518.554 0a267 267 0 0 1 3.043 11.382l-.971.238a267 267 0 0 0-3.032-11.341zM19.225 172.473a267 267 0 0 0-4.016 11.028l-.946-.321a268 268 0 0 1 4.03-11.07zm502.481-.363a269 269 0 0 1 4.03 11.07l-.945.321q-1.891-5.57-4.016-11.028zm-493.02-21.111a268 268 0 0 0-4.966 10.633l-.457-.202-.457-.201q2.38-5.4 4.985-10.673zm483.522-.443a268 268 0 0 1 4.985 10.673l-.456.202-.001-.001-.456.202a266 266 0 0 0-4.967-10.633zm-473.07-20.641.854.52a268 268 0 0 0-5.878 10.159l-.438-.242-.438-.241q2.82-5.126 5.85-10.116zm461.723 0a270 270 0 0 1 5.9 10.196l-.437.242-.001-.001-.437.242a269 269 0 0 0-5.878-10.159zM53.05 110.931a269 269 0 0 0-6.741 9.609l-.831-.557a271 271 0 0 1 6.766-9.645zm434.705-.593a270 270 0 0 1 6.766 9.645l-.83.557a268 268 0 0 0-6.741-9.61zM67 91.976l.751.659a271 271 0 0 0-7.549 8.988l-.78-.627a272 272 0 0 1 7.577-9.021zm406-.001q3.885 4.426 7.577 9.021l-.779.627a271 271 0 0 0-7.549-8.988zM83.983 75.684a271 271 0 0 0-8.3 8.3l-.722-.692a272 272 0 0 1 8.331-8.33zm372.724-.723a271 271 0 0 1 8.33 8.331l-.359.346-.001-.001-.361.346a271 271 0 0 0-8.299-8.3zM101.623 60.202a271 271 0 0 0-8.988 7.549l-.66-.751v-.001q4.426-3.885 9.021-7.577zm337.38-.78a270 270 0 0 1 9.021 7.577l-.659.752a271 271 0 0 0-8.988-7.549zM120.54 46.309a269 269 0 0 0-9.61 6.74l-.592-.805a271 271 0 0 1 9.645-6.767zm299.476-.831a271 271 0 0 1 9.645 6.766l-.592.806a269 269 0 0 0-9.609-6.741zM140.594 34.114a268 268 0 0 0-10.159 5.878l-.52-.854a270 270 0 0 1 10.196-5.9zm259.294-.876a270 270 0 0 1 10.196 5.9l-.519.854a268 268 0 0 0-10.159-5.878zM161.632 23.72a268 268 0 0 0-10.633 4.967l-.443-.896q5.273-2.606 10.673-4.985zm217.139-.914a269 269 0 0 1 10.672 4.985l-.442.895a268 268 0 0 0-10.633-4.966zm-195.27-7.597q-5.57 1.891-11.028 4.016l-.363-.932a268 268 0 0 1 11.07-4.03zm173.318-.946a268 268 0 0 1 11.07 4.03l-.362.932a267 267 0 0 0-11.028-4.016zM205.799 7.68l.237.971a267 267 0 0 0-11.341 3.032l-.279-.96-.001-.001a268 268 0 0 1 11.383-3.043zm128.402-.001q5.741 1.4 11.383 3.043l-.279.96a267 267 0 0 0-11.341-3.03zM229.068 4.094q-5.826.89-11.568 2.026l-.193-.98-.001-.001q5.763-1.14 11.611-2.034zm82.014-.989Q316.93 4 322.693 5.14l-.193.981a268 268 0 0 0-11.568-2.026zm-58.693-1.538q-5.88.38-11.689 1.01l-.107-.994q5.83-.631 11.731-1.014zM287.675.57a272 272 0 0 1 11.731 1.014l-.106.994a271 271 0 0 0-11.689-1.01zM270 0q2.963 0 5.909.064l-.02 1a274 274 0 0 0-11.778 0l-.021-1Q267.037.001 270 0"></path></symbol><symbol id="dashed-line" viewBox="0 0 77 1"><path fill="currentColor" d="M4.3 0a.5.5 0 1 1 0 1H.5a.5.5 0 0 1 0-1zm15.2 0a.5.5 0 0 1 0 1h-7.6a.5.5 0 1 1 0-1zm15.2 0a.5.5 0 0 1 0 1h-7.6a.5.5 0 0 1 0-1zm15.2 0a.5.5 0 0 1 0 1h-7.6a.5.5 0 0 1 0-1zm15.2 0a.5.5 0 0 1 0 1h-7.6a.5.5 0 0 1 0-1zm11.4 0a.5.5 0 0 1 0 1h-3.8a.5.5 0 0 1 0-1z"></path></symbol><symbol id="envelope" viewBox="0 0 24 24"><path fill="currentColor" fill-rule="evenodd" d="M4.5 4.807c-.748.14-1.498.872-1.678 1.637-.053.222-.061.969-.061 5.556 0 5.841-.011 5.562.25 6.056.166.314.619.767.933.933.501.265.009.25 8.056.25s7.555.015 8.056-.25c.314-.166.767-.619.933-.933.261-.494.25-.215.25-6.056s.011-5.562-.25-6.056c-.188-.357-.62-.772-.989-.952a2.5 2.5 0 0 0-.537-.189c-.306-.055-14.669-.052-14.963.004m14.866.491c.368.078.571.192.864.485q.431.431.475.907l.02.21-4.328 2.88c-2.38 1.584-4.359 2.88-4.397 2.88s-2.017-1.296-4.397-2.88L3.275 6.9l.02-.21q.044-.476.475-.907c.287-.288.497-.408.846-.483.373-.082 14.366-.084 14.75-.002M7.6 10.36c2.376 1.584 4.356 2.88 4.4 2.88s2.024-1.296 4.4-2.88a619 619 0 0 1 4.34-2.88c.011 0 .02 2.164.019 4.81 0 5.136 0 5.12-.195 5.503-.232.453-.767.846-1.264.927-.326.054-14.274.054-14.6 0-.497-.081-1.032-.474-1.264-.927-.195-.383-.195-.367-.195-5.503-.001-2.646.008-4.81.019-4.81s1.964 1.296 4.34 2.88"></path></symbol><symbol id="logo-letter" viewBox="0 0 168 183"><path fill="currentColor" d="M168 13.445c0 7.425-6.017 13.445-13.44 13.445s-13.44-6.02-13.44-13.445S147.137 0 154.56 0 168 6.02 168 13.445M126.485 155.022l28.363 10.964v9.452l-44.461 5.672h-7.666v-23.442h-1.916q-7.665 10.209-20.315 17.77Q68.226 183 50.594 183q-21.847 0-36.412-11.721Q0 159.181 0 138.764q0-38.565 54.044-54.823l49.444-15.123V55.585q0-18.148-8.05-27.978-8.048-10.209-23.38-10.209-16.481 0-27.597 11.721Q33.73 40.84 23.381 65.793h-11.5v-49.15q9.967-6.807 25.681-10.965 16.098-4.16 32.196-4.16 56.727 0 56.727 54.067zm-68.992 8.318q13.415 0 25.297-8.318 12.265-8.697 20.698-24.954V85.454L57.876 99.443q-30.663 9.074-30.663 34.406 0 13.611 8.05 21.551 8.432 7.94 22.23 7.94"></path></symbol><symbol id="logo-word" viewBox="0 0 149 34"><path fill="currentColor" d="m13.626 24.45-.445-.606 3.15.605v1.48l-4.793.202-.411-3.229.24.101q-1.507 1.614-3.253 2.455-1.746.807-3.39.807-1.985 0-3.355-1.244T0 21.254q0-1.985.856-3.027.855-1.075 2.362-1.513t3.492-.437h4.485l-.308.336v-3.228q0-1.85-.993-2.623-.993-.808-2.739-.808-.924 0-1.985.202-1.027.168-2.191.572l.41-.437-.342 3.06H1.232L.96 9.181a27 27 0 0 1 3.663-.942q1.712-.336 3.15-.336 2.739 0 4.28 1.21 1.574 1.178 1.574 3.8zM2.773 21.018q0 1.648.788 2.421.82.774 2.054.774 1.198 0 2.636-.707 1.472-.74 2.842-1.984l-.206.707v-4.507l.308.303H7.121q-2.43 0-3.39.74-.957.706-.958 2.253M18.278 25.962v-1.446l3.013-.639-.343.505V9.887l.377.505-3.047-.64V8.308l4.793-.236.377 3.296-.377-.135q1.54-1.58 3.013-2.455a6.2 6.2 0 0 1 3.218-.874q1.095 0 2.294.336l-.206 4.91h-1.712l-.41-3.53.308.604a3.5 3.5 0 0 0-.514-.1 5 5 0 0 0-.547-.034q-1.37 0-2.67.807-1.268.807-2.432 2.085l.274-.807v12.208l-.41-.505 3.731.64v1.445zM39.483 26.265q-1.78 0-2.807-1.076-1.027-1.11-1.027-3.33V9.653l.445.437h-3.526v-1.48l3.56-.504-.48.538v-4.44l2.74-.436v4.876l-.377-.437h5.375l-.103 1.883h-5.272l.377-.437V21.49q0 1.412.547 2.051.582.639 1.61.639.615 0 1.335-.202.719-.201 1.54-.572l.582 1.547q-2.43 1.312-4.519 1.312M53.54 26.265q-2.292 0-4.073-1.009-1.746-1.043-2.74-3.026-.992-1.985-.992-4.843 0-2.925 1.027-5.045 1.027-2.118 2.91-3.262 1.884-1.177 4.417-1.177 2.396 0 3.937 1.009 1.575.975 2.328 2.724.787 1.749.787 4.002 0 .37-.034.74t-.103.908h-13.18v-1.917h10.784l-.308.202q.034-1.514-.377-2.792t-1.404-2.051q-.992-.774-2.636-.774-1.746 0-2.944.909-1.198.907-1.78 2.488t-.582 3.666q0 2.22.65 3.834.65 1.58 1.883 2.455 1.267.874 3.081.874 1.268 0 2.773-.47 1.507-.506 3.116-1.514l.993 1.513q-1.917 1.278-3.835 1.917-1.917.64-3.697.64M72.88 7.903q3.766 0 5.889 2.32 2.157 2.32 2.157 6.558 0 2.859-1.062 5.011-1.026 2.119-2.944 3.296t-4.622 1.177q-3.698 0-5.786-2.253-2.088-2.287-2.088-6.558 0-2.96.993-5.078 1.026-2.153 2.91-3.296 1.917-1.177 4.553-1.177m-.137 1.984q-2.636 0-4.04 1.95Q67.3 13.789 67.3 17.32q0 3.463 1.335 5.212t3.834 1.749q1.815 0 3.047-.874 1.267-.909 1.883-2.556.65-1.648.65-3.935 0-3.43-1.403-5.213-1.37-1.815-3.903-1.816M88.772 24.247l-.308-.37 2.979.64v1.445h-8.114v-1.446l2.978-.639-.273.37V1.984l.273.303-2.978-.605V.234L88.772 0zM102.335 7.903q3.767 0 5.889 2.32 2.157 2.32 2.157 6.558 0 2.859-1.062 5.011-1.026 2.119-2.944 3.296t-4.622 1.177q-3.697 0-5.786-2.253-2.088-2.287-2.088-6.558 0-2.96.993-5.078 1.026-2.153 2.91-3.296 1.917-1.177 4.553-1.177m-.137 1.984q-2.636 0-4.04 1.95-1.403 1.951-1.403 5.483 0 3.463 1.335 5.212t3.834 1.749q1.815 0 3.047-.874 1.268-.909 1.883-2.556.651-1.648.651-3.935 0-3.43-1.404-5.213-1.37-1.815-3.903-1.816M121.001 34q-4.006 0-5.992-1.143t-1.985-3.296q0-1.514 1.027-2.69 1.027-1.178 3.012-2.052l.035.538q-1.096-.067-1.678-.437a1.28 1.28 0 0 1-.582-1.11q0-.27.069-.538a8 8 0 0 1 .239-.74q.206-.504.582-1.311.411-.841 1.027-2.186l.069.47q-1.473-.773-2.26-2.085-.787-1.344-.787-3.16 0-2.926 1.951-4.642 1.986-1.715 5.444-1.715 2.328 0 4.005.807l-.753-.168 5.375-.235.035 1.614-3.184.605.239-.403q.72.672 1.096 1.648t.376 2.22q0 2.958-2.019 4.674-2.02 1.715-5.376 1.715-1.917 0-3.526-.64l.616-.302-.89 4.406-.582-.337h6.71q3.288 0 4.999 1.278 1.712 1.245 1.712 3.599 0 2.724-2.294 4.17-2.26 1.446-6.71 1.446m.239-2.051q3.116 0 4.622-.841 1.507-.84 1.507-2.522 0-1.48-1.13-2.254-1.13-.74-3.39-.74h-5.443l.787-.168q-2.739 1.682-2.739 3.632 0 1.446 1.404 2.153 1.438.74 4.382.74m-.274-13.452q2.191 0 3.424-1.144 1.233-1.177 1.233-3.296t-1.164-3.194-3.321-1.077q-2.191 0-3.39 1.144-1.198 1.11-1.198 3.262 0 2.085 1.13 3.195 1.164 1.11 3.286 1.11M131.266 33.832l.239-1.984q.411.066.753.1.378.034.685.034 1.678 0 2.705-.773 1.061-.741 1.78-2.253.719-1.515 1.472-3.767l-.102 1.009-6.403-16.378.377.303-2.225-.37V8.307l7.497-.236v1.48l-3.081.504.206-.302 5.101 14.293-.616-.135 4.895-14.091.206.303-3.013-.37V8.307L149 8.07v1.48l-2.397.538.48-.303-6.026 16.244a37 37 0 0 1-1.301 3.127 11.8 11.8 0 0 1-1.506 2.523 5.9 5.9 0 0 1-2.089 1.715q-1.232.605-2.978.605-.787 0-1.917-.168"></path></symbol><symbol id="solid-circle" viewBox="0 0 100 100"><path fill="currentColor" fill-rule="evenodd" d="M50 0a50 50 0 1 1 0 100A50 50 0 1 1 50 0m0 1a49 49 0 1 0 0 98 49 49 0 1 0 0-98"></path></symbol><symbol id="tick" viewBox="0 0 24 24"><path fill="currentColor" d="M16.626 7.96a1 1 0 1 1 1.414 1.414l-6.667 6.667a1 1 0 0 1-1.414 0l-3.333-3.334a1 1 0 0 1 1.414-1.414l2.626 2.626z"></path></symbol></svg>