<svg width="75" height="48" viewBox="0 0 75 48" fill="none" xmlns="http://www.w3.org/2000/svg">
<path d="M41.7073 31.2031C40.3659 32.9808 38.9024 34.4521 36.5244 35.0038L27.6829 21.272L37.2561 8.58238C39.3293 8.76628 40.4268 9.80843 41.9512 11.2797C42.8049 12.0766 43.5976 12.9349 50.4268 19.8621L41.7073 31.2031ZM69.8171 31.2031L61.0976 19.8008C67.9268 12.8736 68.7195 12.0766 69.5732 11.2184C71.0976 9.74713 72.0122 8.70498 74.0854 8.52107V8.03065H65.5488V8.52107H66.0976C66.8902 8.52107 67.622 8.70498 67.622 9.44061C67.622 10.2375 66.4634 12.3218 57.8659 20.8429V11.341C57.8659 10.5441 57.8049 8.58238 61.1585 8.58238H61.8293V8.09195H49.6341V8.58238H50.3049C53.6585 8.58238 53.5976 10.5441 53.5976 11.341V20.9042C45 12.4444 43.9024 10.3602 43.9024 9.50192C43.9024 8.76628 44.6341 8.58238 45.4268 8.58238H45.9756V8.09195H37.622L38.6585 6.68199C41.0366 3.55556 42.561 1.47126 46.8293 0.858237V0H32.1951V0.91954C35.4878 0.858238 36.4634 2.02299 36.4634 3.18774C36.4634 4.41379 35.7317 5.57854 34.939 6.62069L25.9146 18.5134L17.561 5.51724C17.0732 4.78161 16.6463 4.10728 16.6463 3.12644C16.6463 1.22605 18.5976 0.858237 21.3415 0.858237V0H0.487805V0.91954C5 1.34866 7.62195 3.92337 9.81707 7.23372L21.2805 24.5211L7.43902 41.931C4.87805 45.1801 3.41463 46.7739 0 47.0805V48H14.6341V47.0805C12.8659 47.0805 10.1829 46.8966 10.1829 44.9962C10.1829 44.3831 10.5488 43.5862 10.9146 43.0345L22.8659 27.341L32.8049 42.4828C33.0488 42.9119 33.7195 44.0766 33.7195 44.9962C33.7195 46.9579 30.9756 46.9579 29.0244 47.0805V48H48.5366V47.0805C44.6951 46.5287 41.7073 42.9119 40.061 40.3372L36.9512 35.4943H46.5244V35.0038C45.7927 35.0038 45.122 34.5134 45.122 33.9617C45.122 33.3487 45.4268 32.613 45.8537 32.0613L53.7195 21.4559V32.1839C53.7195 32.9808 53.7805 34.9425 50.4268 34.9425H49.7561V35.4329H61.9512V34.9425H61.2805C57.9268 34.9425 57.9878 32.9808 57.9878 32.1839V21.5172L65.7927 32.0613C66.1585 32.613 66.4634 33.2874 66.4634 33.9617C66.4634 34.5747 65.7927 35.0038 65.061 35.0038V35.4943H75V35.0038C72.622 34.5134 71.1585 32.9808 69.8171 31.2031Z" fill="black"/>
</svg>
