<svg width="120" height="32" viewBox="0 0 120 32" fill="none" xmlns="http://www.w3.org/2000/svg">
<path fill-rule="evenodd" clip-rule="evenodd" d="M0 0V29.8667L29.8667 0H0Z" fill="#92CFAE"/>
<path fill-rule="evenodd" clip-rule="evenodd" d="M2.1333 31.9995H32V2.13281L2.1333 31.9995Z" fill="#2A8288"/>
<path fill-rule="evenodd" clip-rule="evenodd" d="M48.7765 15.3063C52.2491 15.3063 54.0952 13.6057 54.0952 10.4283V10.2488C54.0952 6.84763 52.161 5.50506 48.7765 5.50506H45.1719V15.3063H48.7765ZM38.0952 0H48.9522C56.6005 0 60.9524 3.44593 60.9524 10.2046V10.3831C60.9524 17.1412 56.3371 20.3639 49.1718 20.3639H45.1719V32H38.0952V0Z" fill="#1E1E1E"/>
<path fill-rule="evenodd" clip-rule="evenodd" d="M75.0405 26.4949C78.4476 26.4949 80.1729 24.9734 80.1729 22.0639V21.8855C80.1729 19.0208 78.4476 17.4545 74.868 17.4545H70.9002V26.4949H75.0405ZM75.2994 32H64V0H84.0973V5.63931H70.9437L70.9002 12.3522H75.5148C82.6309 12.3522 86.8571 15.5301 86.8571 21.9297V22.1092C86.8571 28.3745 82.9328 32 75.2994 32Z" fill="#1E1E1E"/>
<path fill-rule="evenodd" clip-rule="evenodd" d="M92 0.0446899H99.4306V13.8102L110.897 0H118.786L105.806 15.1509L119.429 32H110.76L99.4306 17.6535V32H92V0.0446899Z" fill="#1E1E1E"/>
</svg>
