<svg width="51" height="48" viewBox="0 0 51 48" fill="none" xmlns="http://www.w3.org/2000/svg">
<path d="M20.6026 9.61014C21.2388 7.97042 21.7328 6.47438 21.7328 5.26572C21.7328 0.853672 15.5294 2.06233 15.5294 0.498679V0H28.7901L44.2273 41.3735C46.6216 47.8563 51 46.0729 51 47.6366V47.9915H30.5397V47.5605C30.5397 46.2081 35.546 47.3492 35.546 43.5034C35.546 41.72 33.1517 36.3867 31.8792 32.6846H13.336L11.151 38.8125C10.7994 39.8774 10.2301 41.5932 10.2301 42.5145C10.2301 47.5013 16.8605 46.0729 16.8605 47.645V48H0V47.645C0 45.9377 6.13641 48.0676 9.24228 39.8098C12.9844 29.6926 16.8605 19.7274 20.6026 9.61014ZM13.8299 31.5436H31.3936L22.7122 7.9028H22.4276L13.8299 31.5436Z" fill="#E5252B"/>
</svg>
