<svg width="66" height="596" viewBox="0 0 66 596" fill="none" xmlns="http://www.w3.org/2000/svg">
<path d="M57.7044 596L50.5939 591.993C52.721 589.017 54.3315 586.073 55.4254 583.158C56.5193 580.244 57.0663 577.42 57.0663 574.688C57.0663 571.288 56.1851 568.222 54.4227 565.489C52.6602 562.696 49.9254 560.511 46.2182 558.932C42.5111 557.353 37.8011 556.564 32.0884 556.564C27.2265 556.564 23.0635 557.232 19.5994 558.568C16.0746 559.903 13.3702 561.907 11.4862 564.579C9.54144 567.25 8.56906 570.59 8.56906 574.597C8.56906 578.422 9.45028 582.824 11.2127 587.803L9.48067 585.617L20.0552 587.53V594.27L4.92265 594.998C1.64088 586.801 0 579.363 0 572.685C0 566.977 1.21547 562.059 3.64641 557.93C6.07735 553.741 9.66299 550.492 14.4033 548.185C19.1436 545.878 24.9171 544.724 31.7238 544.724C39.1381 544.724 45.3978 546.03 50.5028 548.64C55.547 551.251 59.4061 554.743 62.0801 559.114C64.6934 563.425 66 568.191 66 573.413C66 577.117 65.3315 580.912 63.9945 584.798C62.5967 588.623 60.5 592.357 57.7044 596ZM36.0083 582.976H28.3508L28.3508 551.828H36.0083V582.976Z" fill="white" fill-opacity="0.6"/>
<path d="M59.4365 481.393L57.1575 484.489L59.3453 476.475H64.9972L64.9972 501.247H59.3453L57.1575 493.961L59.0718 494.235L34.1851 510.719L36.3729 507.623V520.191L34.0939 518.37H59.3453L56.884 519.827L59.3453 511.539H64.9972V536.676H59.3453L57.1575 528.297L59.3453 529.572H6.83702L9.02486 528.297L7.1105 536.676H1.45857L1.00277 511.539H6.56354L9.02486 519.827L6.6547 518.37H30.0829L28.2597 520.191L28.2597 506.985L29.9917 509.991L7.01934 496.238L8.75138 495.327L7.1105 503.342H1.45857L1.00277 479.571H6.6547L9.02486 487.95L7.1105 485.4L33.1823 501.521H30.2652L59.4365 481.393Z" fill="white" fill-opacity="0.6"/>
<path d="M66 448.242C66 453.16 64.7845 457.683 62.3536 461.812C59.8619 465.88 56.1851 469.129 51.3232 471.557C46.4613 473.986 40.4751 475.2 33.3646 475.2C26.3757 475.2 20.3895 474.016 15.4061 471.648C10.4227 469.22 6.62431 465.82 4.01105 461.448C1.33702 457.076 0 451.976 0 446.147C0 442.99 0.395028 439.772 1.18508 436.493C1.91437 433.154 3.06906 429.632 4.64917 425.928L20.4199 426.657V433.305L9.48067 435.309L11.395 433.396C10.4834 435.643 9.81492 437.829 9.38951 439.954C8.90332 442.018 8.66022 443.961 8.66022 445.783C8.66022 449.487 9.60221 452.644 11.4862 455.255C13.3094 457.805 15.9834 459.778 19.5083 461.175C22.9724 462.51 27.105 463.178 31.9061 463.178C37.4365 463.178 42.0552 462.419 45.7624 460.901C49.4696 459.383 52.2652 457.289 54.1492 454.617C55.9724 451.885 56.884 448.819 56.884 445.418C56.884 442.929 56.3674 440.288 55.3343 437.495C54.2403 434.702 52.5691 431.939 50.3204 429.207L56.884 425.017C59.9227 428.721 62.2017 432.577 63.721 436.584C65.2403 440.531 66 444.417 66 448.242Z" fill="white" fill-opacity="0.6"/>
<path d="M64.9972 417.939H59.3453L57.0663 409.287L59.3453 410.835H6.92818L9.29835 408.923L7.1105 417.939H1.45857L1.00277 399.633L1.00277 354.55H6.6547L9.29835 363.293L6.83702 361.654H59.3453L57.0663 363.293L59.3453 354.55H64.9972V379.96H59.3453L57.0663 371.308L59.3453 372.856H6.47238L9.11602 371.035L9.11602 401.363L6.47238 399.633H59.3453L57.0663 401.09L59.3453 392.529H64.9972V417.939Z" fill="white" fill-opacity="0.6"/>
<path d="M48.5884 306.793L48.5884 300.144L64.9972 300.235V347.231H59.3453L57.0663 338.578L59.3453 340.127H6.92818L9.20718 338.578L7.1105 347.231H1.45857L1.00277 329.106L1.00277 301.237H16.7735V307.977L7.47514 309.707L9.11602 307.521L9.11602 330.746L7.29282 328.924H30.2652L28.442 330.746V308.25H36.2818V330.746L34.2762 328.924H58.7072L56.884 330.746V306.428L58.7072 308.614L48.5884 306.793Z" fill="white" fill-opacity="0.6"/>
<path d="M41.7514 267.787V275.346L39.9282 273.069H59.3453L57.1575 274.708L59.3453 263.961H64.9972V291.375H59.3453L56.9751 282.45L59.3453 284.271H6.83702L9.29835 282.177L7.1105 291.375H1.45857L1.00277 272.796L1.00277 263.87C1.00277 258.952 1.85359 254.914 3.55525 251.757C5.19614 248.6 7.47514 246.262 10.3923 244.744C13.3094 243.166 16.6519 242.376 20.4199 242.376C24.4917 242.376 28.1685 243.317 31.4503 245.2C34.6713 247.021 37.1934 249.814 39.0166 253.579C40.8398 257.282 41.7514 262.018 41.7514 267.787ZM9.02486 265.601V274.891L7.29282 273.069H35.4613L33.6381 275.346V267.696C33.6381 263.202 32.4834 259.772 30.174 257.404C27.8039 255.036 24.6436 253.852 20.6934 253.852C17.047 253.852 14.1906 254.854 12.1243 256.857C10.058 258.8 9.02486 261.715 9.02486 265.601Z" fill="white" fill-opacity="0.6"/>
<path d="M64.9972 227.192H59.3453L56.9751 216.9L59.8011 218.995H7.29282L9.11602 216.718V232.474L6.92818 229.924L18.5055 232.11V238.849H1.00277L1.00277 187.938H18.5055V194.677L7.29282 196.772L9.11602 194.313L9.11602 210.069L7.29282 207.792H59.8011L56.9751 209.796L59.3453 199.595H64.9972V227.192Z" fill="white" fill-opacity="0.6"/>
<path d="M64.9972 184.023H59.3453L57.0663 175.371L59.3453 176.919H6.92818L9.29835 175.006L7.1105 184.023H1.45857L1.00277 158.613H6.6547L9.29835 167.447L6.83702 165.717H46.4917L45.8536 167.538L9.57182 135.206L12.3066 136.299H6.92818L9.29835 134.477L7.1105 143.312H1.45857L1.00277 117.993H6.6547L9.29835 126.645L6.83702 125.097H59.3453L57.0663 126.645L59.3453 117.993H64.9972V143.312H59.3453L57.0663 134.751L59.3453 136.299H19.1436L20.1464 134.477L56.2459 166.627L53.7845 165.717H59.3453L57.0663 167.174L59.3453 158.613H64.9972V184.023Z" fill="white" fill-opacity="0.6"/>
<path d="M66 91.1537C66 98.0148 64.5414 104.754 61.6243 111.373L53.6022 108.367C54.6961 105.635 55.5773 102.842 56.2459 99.9881C56.9144 97.0736 57.2486 94.311 57.2486 91.7002C57.2486 89.0286 56.884 86.6302 56.1547 84.5051C55.3646 82.38 54.1492 80.6799 52.5083 79.4049C50.8066 78.1298 48.6796 77.4922 46.1271 77.4922C44.0608 77.4922 42.2376 77.9477 40.6575 78.8584C39.0774 79.7692 37.8619 81.2264 37.0111 83.2301C36.1602 85.2337 35.7348 87.8749 35.7348 91.1537V98.2577H27.7127V91.4269C27.7127 87.2374 26.8923 84.1408 25.2514 82.1371C23.5497 80.0728 21.058 79.0406 17.7762 79.0406C14.3122 79.0406 11.8508 80.1031 10.3923 82.2282C8.9337 84.3533 8.20442 87.1767 8.20442 90.6983C8.20442 92.3377 8.38674 94.1592 8.75138 96.1629C9.11602 98.1666 9.60221 100.231 10.2099 102.356L8.66022 100.717L19.1436 101.901L19.1436 108.549L3.64641 109.369C2.49171 105.726 1.6105 102.174 1.00277 98.713C0.334255 95.2521 0 91.9127 0 88.6947C0 84.6266 0.546961 81.0139 1.64088 77.8566C2.73481 74.6993 4.46685 72.2098 6.83702 70.3884C9.14641 68.5668 12.2155 67.6561 16.0442 67.6561C19.1436 67.6561 21.8177 68.3239 24.0663 69.6597C26.3149 70.9348 28.0773 72.7563 29.3536 75.1243C30.6298 77.4923 31.4199 80.3157 31.7238 83.5944L30.721 83.6854C31.0856 77.553 32.6657 73.0903 35.4613 70.2973C38.1961 67.5043 41.8729 66.1077 46.4917 66.1077C50.9282 66.1077 54.605 67.2614 57.5221 69.5687C60.3785 71.8759 62.5055 74.9118 63.9033 78.6763C65.3011 82.4407 66 86.5999 66 91.1537Z" fill="white" fill-opacity="0.6"/>
<path d="M59.6188 5.10028L56.9751 8.10577L59.3453 0H64.9972L64.9972 25.3192H59.3453L57.1575 16.8491L58.7983 17.942L46.0359 22.0405L47.4945 20.2189V45.5381L46.1271 44.0809L58.616 48.4525L57.4309 48.8168L59.3453 40.8932H64.9972V64.2087H59.3453L57.0663 56.3761L59.3453 58.9263L1.18508 37.1591L0.820442 25.7746L59.6188 5.10028ZM41.2044 42.6237L39.6547 43.4434V22.1315L41.4779 23.2244L7.1105 33.5161L7.20166 30.9659L41.2044 42.6237Z" fill="white" fill-opacity="0.6"/>
</svg>
