<svg width="170" height="61" viewBox="0 0 170 61" fill="none" xmlns="http://www.w3.org/2000/svg">
<g clip-path="url(#clip0_156_1139)">
<path fill-rule="evenodd" clip-rule="evenodd" d="M11.5501 0L8.66079 7.91726H48.7005L51.5898 0H11.5501ZM7.21522 11.8741L4.32589 19.7896H44.3656L47.2549 11.8741H7.21522ZM2.88933 23.7482L0 31.6637H40.0397L42.9272 23.7482H2.88933Z" fill="#BA965A"/>
<mask id="mask0_156_1139" style="mask-type:luminance" maskUnits="userSpaceOnUse" x="60" y="12" width="110" height="49">
<path d="M60.0723 60.5246H169.676V12.0264H60.0723V60.5246Z" fill="white"/>
</mask>
<g mask="url(#mask0_156_1139)">
<path fill-rule="evenodd" clip-rule="evenodd" d="M85.1218 34.6808V34.8478C86.9516 35.5197 88.6995 36.6946 89.6154 37.449C92.4448 39.7987 93.6938 42.9029 93.6938 46.9305C93.6938 53.561 90.198 58.343 84.4554 59.8538C82.7075 60.3568 80.8777 60.5257 77.4638 60.5257H60.0723V12.0264H75.4683C78.6309 12.0264 80.7939 12.1934 82.7075 12.6964C88.2844 14.2072 91.9459 18.0677 91.9459 24.1916C91.9459 27.4646 90.7806 30.2347 88.867 32.0796C88.035 32.9185 86.8697 33.9263 85.1218 34.6808ZM69.7258 39.7987V52.5532H76.3841C78.3797 52.5532 80.2113 52.3862 81.5441 51.1269C82.875 49.8676 83.4577 48.2742 83.4577 46.176C83.4577 44.5826 83.0407 43.0718 82.2087 41.9814C80.7939 40.2191 79.0461 39.7987 76.051 39.7987H69.7258ZM69.642 31.4077H75.0514C76.7155 31.4077 77.5476 31.4077 78.3797 31.1562C80.6283 30.4844 82.043 28.4724 82.043 25.7024C82.043 22.4311 80.5445 21.003 78.3797 20.3329C77.4638 20.0814 76.5498 19.997 74.7182 19.997H69.642V31.4077ZM108.174 60.5257V20.164H94.2764V12.0264H132.892L130.147 20.164H117.828V60.5257H108.174ZM135.887 60.5257V12.0264H167.18L164.434 20.164H145.459V30.9048H153.199C159.44 30.9048 162.687 32.4155 164.933 34.3449C166.681 35.8556 169.676 39.2113 169.676 45.8419C169.676 52.3862 166.597 55.9933 164.018 57.84C161.022 59.9364 157.86 60.5257 151.451 60.5257H135.887ZM145.459 52.3862H152.7C155.446 52.3862 157.11 51.7143 158.275 50.2035C158.858 49.449 159.69 48.1053 159.69 45.5886C159.69 43.0718 158.858 41.3095 157.193 40.0502C156.196 39.2958 154.863 38.8772 152.616 38.8772H145.459V52.3862Z" fill="white"/>
</g>
</g>
<defs>
<clipPath id="clip0_156_1139">
<rect width="170" height="61" fill="white"/>
</clipPath>
</defs>
</svg>
