<svg width="71" height="503" viewBox="0 0 71 503" fill="none" xmlns="http://www.w3.org/2000/svg">
<path d="M63.6518 442.647L61.1692 446.027L63.5524 437.278H69.7091V464.322H63.5524L61.1692 456.368L63.2545 456.666L36.1455 474.663L38.5287 471.282V485.003L36.0462 483.015H63.5524L60.8713 484.606L63.5524 475.558H69.7091V503H63.5524L61.1692 493.853L63.5524 495.245H6.35525L8.73846 493.853L6.65314 503H0.496503L0 475.558H6.05734L8.73846 484.606L6.15664 483.015H31.6769L29.6909 485.003L29.6909 470.586L31.5776 473.867L6.55384 458.854L8.44056 457.859L6.65314 466.609H0.496503L0 440.658H6.15664L8.73846 449.806L6.65314 447.022L35.0532 464.621H31.8755L63.6518 442.647Z" fill="white" fill-opacity="0.6"/>
<path d="M71 427.154C71 429.408 70.5697 432.092 69.7091 435.208L58.3888 433.319C58.7198 431.993 58.8853 430.8 58.8853 429.739C58.8853 427.353 58.124 425.331 56.6014 423.674C55.0788 422.017 52.9604 420.691 50.2462 419.697C47.5319 418.636 44.4536 417.808 41.0112 417.211C37.5688 416.615 33.8946 416.184 29.9888 415.919C26.083 415.653 22.1772 415.455 18.2713 415.322C14.3655 415.123 10.5921 414.991 6.95105 414.924L9.03637 413.135L6.65314 422.68H0.496503L0 405.777L0 367.895H6.15664L9.03637 377.34L6.35525 375.65H63.5524L61.0699 377.34L63.5524 367.895H69.7091L69.7091 396.828H63.5524L61.0699 386.189L63.5524 387.88H5.95804L8.83776 385.891L8.83776 407.666L6.55384 405.28C11.6513 405.611 16.7818 405.909 21.9455 406.175C27.0429 406.373 32.0079 406.705 36.8406 407.169C41.607 407.633 46.0755 408.296 50.2462 409.157C54.3506 409.953 57.9585 411.113 61.0699 412.637C64.1814 414.096 66.6308 416.018 68.4182 418.404C70.1394 420.724 71 423.641 71 427.154Z" fill="white" fill-opacity="0.6"/>
<path d="M69.7091 359.975H63.5524L61.0699 350.529L63.5524 352.219H6.45455L9.03637 350.131L6.65314 359.975H0.496503L0 332.234H6.15664L9.03637 341.879L6.35525 339.989H49.5511L48.8559 341.978L9.33426 306.681L12.3133 307.874H6.45455L9.03637 305.885L6.65314 315.53H0.496503L0 287.889H6.15664L9.03637 297.335L6.35525 295.644H63.5524L61.0699 297.335L63.5524 287.889H69.7091V315.53H63.5524L61.0699 306.184L63.5524 307.874H19.7608L20.8531 305.885L60.1762 340.984L57.4951 339.989H63.5524L61.0699 341.58L63.5524 332.234H69.7091V359.975Z" fill="white" fill-opacity="0.6"/>
<path d="M51.835 235.819V228.561L69.7091 228.661V279.966H63.5524L61.0699 270.52L63.5524 272.21H6.45455L8.93706 270.52L6.65314 279.966H0.496503L0 260.179L0 229.754H17.179V237.112L7.05035 239.001L8.83776 236.615L8.83776 261.969L6.85175 259.981H31.8755L29.8895 261.969L29.8895 237.41H38.4294V261.969L36.2448 259.981H62.8573L60.8713 261.969V235.422L62.8573 237.808L51.835 235.819Z" fill="white" fill-opacity="0.6"/>
<path d="M69.7091 218.988H63.5524L61.0699 209.542L63.5524 211.233H6.45455L9.03637 209.145L6.65314 218.988H0.496503L0 191.247H6.15664L9.03637 200.892L6.35525 199.003H31.7762L29.7902 200.992L29.7902 166.39L31.7762 168.28H6.45455L9.03637 166.39L6.65314 176.035H0.496503L0 148.394H6.15664L9.03637 157.84L6.35525 156.149H63.5524L61.0699 157.84L63.5524 148.394H69.7091L69.7091 176.035H63.5524L61.0699 166.689L63.5524 168.28H36.642L38.628 166.39V200.992L36.642 199.003H63.5524L61.0699 200.594L63.5524 191.247H69.7091V218.988Z" fill="white" fill-opacity="0.6"/>
<path d="M69.7091 131.343H63.5524L60.9706 120.108L64.049 122.395H6.85175L8.83776 119.909V137.11L6.45455 134.326L19.0657 136.713V144.07H0L0 88.4898H19.0657V95.8474L6.85175 98.1343L8.83776 95.4498L8.83776 112.651L6.85175 110.165H64.049L60.9706 112.353L63.5524 101.217H69.7091V131.343Z" fill="white" fill-opacity="0.6"/>
<path d="M69.7091 84.2159H63.5524L61.1692 75.0685L62.9566 76.4605H6.45455L8.93706 74.6708L6.65314 84.2159H0.496503L0 56.4753H6.15664L9.03637 66.1199L6.45455 64.2308H29.4923L27.3077 66.5176V54.1885C27.3077 46.1679 29.062 40.2354 32.5706 36.3908C36.0131 32.5462 40.945 30.624 47.3664 30.624C51.8019 30.624 55.7077 31.6514 59.0839 33.7062C62.4601 35.6948 65.0751 38.744 66.9287 42.8537C68.7823 46.8971 69.7091 52.0342 69.7091 58.2651V84.2159ZM62.8573 64.2308L60.8713 66.7165V58.2651C60.8713 53.3599 59.779 49.6148 57.5944 47.0296C55.4098 44.4445 52.1329 43.1519 47.7636 43.1519C43.593 43.1519 40.5147 44.2457 38.5287 46.4331C36.5427 48.5542 35.5497 51.7359 35.5497 55.9782V66.2193L33.5636 64.2308H62.8573ZM6.15664 0L8.93706 9.04797L6.95105 7.65598H62.9566L61.1692 9.04797L63.5524 0H69.7091V27.6411H63.5524L61.1692 18.6925L62.9566 19.8857H6.95105L8.93706 18.2948L6.65314 27.6411H0.496503L0 0H6.15664Z" fill="white" fill-opacity="0.6"/>
</svg>
